<svg width="227" height="40" viewBox="0 0 227 40" fill="none" xmlns="http://www.w3.org/2000/svg">
<g clip-path="url(#clip0_330_989)">
<path d="M79.6766 30.12H67.5766L66.0866 34.5867C65.9433 34.96 65.6933 35.2833 65.3699 35.52C65.0433 35.7533 64.6599 35.89 64.2599 35.91H57.7233C56.9633 35.91 56.5699 35.3233 56.8466 34.6133L68.6933 4.41333C68.8599 4.04333 69.1233 3.72667 69.4599 3.49667C69.7933 3.27 70.1833 3.13667 70.5866 3.11667H76.7166C77.4766 3.11667 78.3333 3.7 78.6066 4.41333L90.4099 34.61C90.6866 35.3233 90.2899 35.91 89.5299 35.91H82.9933C82.5966 35.89 82.2099 35.7533 81.8866 35.52C81.5633 35.2833 81.3133 34.96 81.1699 34.5867L79.6766 30.12ZM77.5433 23.66L73.6299 11.7767L69.7133 23.66H77.5433ZM118.27 35.91C117.507 35.91 116.563 35.37 116.167 34.7167L110.58 25.4067L104.993 34.7167C104.597 35.3733 103.653 35.91 102.89 35.91H94.9299C94.1699 35.91 93.8999 35.3933 94.3333 34.76L105.09 19.0533L95.2799 4.27333C94.8599 3.63667 95.1366 3.11667 95.8966 3.11667H103.247C104.007 3.11667 104.96 3.65 105.36 4.30333L110.58 12.8L115.757 4.30333C116.15 3.65 117.1 3.11667 117.863 3.11667H125.263C126.023 3.11667 126.3 3.63667 125.873 4.27L116.02 18.9967L126.827 34.76C127.26 35.3933 126.99 35.91 126.23 35.91H118.27ZM140.953 34.5167C140.953 34.8833 140.807 35.2367 140.55 35.4967C140.29 35.7567 139.94 35.9067 139.573 35.91H133.693C133.327 35.9067 132.973 35.76 132.713 35.5C132.457 35.2367 132.31 34.8833 132.31 34.5167V4.51C132.31 3.74333 132.933 3.11667 133.693 3.11667H139.573C140.33 3.11667 140.953 3.74333 140.953 4.51V34.5167ZM146.16 19.41C146.16 9.87667 153.28 2.19333 164.21 2.19333C175.14 2.19333 182.26 9.88 182.26 19.41C182.26 28.9933 175.14 36.68 164.21 36.68C153.28 36.68 146.16 28.99 146.16 19.41ZM173.413 19.41C173.413 14.4367 169.953 9.93 164.21 9.93C158.513 9.93 155.003 14.4367 155.003 19.41C155.003 24.3833 158.513 28.9933 164.21 28.9933C169.903 28.9933 173.413 24.38 173.413 19.41ZM219.153 35.91C218.773 35.9 218.407 35.7533 218.12 35.5C217.837 35.25 217.647 34.9033 217.59 34.5267L215.33 16.95L208.793 34.6033C208.637 34.9733 208.38 35.2933 208.047 35.5233C207.717 35.7533 207.33 35.8867 206.927 35.9067H204.053C203.65 35.8867 203.263 35.7533 202.933 35.5233C202.603 35.29 202.347 34.9733 202.19 34.6033L195.65 16.7967L193.387 34.5267C193.33 34.9033 193.143 35.25 192.857 35.5C192.57 35.7533 192.207 35.9 191.823 35.91H186.307C186.133 35.9167 185.96 35.8833 185.8 35.8133C185.64 35.7433 185.5 35.6367 185.387 35.5067C185.273 35.3733 185.187 35.2167 185.14 35.0467C185.093 34.8767 185.083 34.7 185.11 34.5267L189.207 4.49667C189.267 4.12 189.457 3.77333 189.747 3.52C190.033 3.27 190.4 3.12667 190.78 3.11667H195.893C196.653 3.11667 197.497 3.70333 197.77 4.42L205.463 24.84L213.207 4.41667C213.367 4.04667 213.63 3.73 213.96 3.5C214.293 3.27 214.68 3.13667 215.083 3.11667H220.197C220.96 3.11667 221.667 3.73667 221.773 4.49667L225.867 34.5267C225.897 34.7 225.887 34.8767 225.84 35.0467C225.79 35.2167 225.707 35.3733 225.593 35.5067C225.48 35.6367 225.337 35.74 225.177 35.81C225.02 35.88 224.847 35.9133 224.673 35.91H219.153ZM44.9033 27.91L35.4799 11.3733C35.0499 10.61 33.9833 9.99 33.1133 9.99H27.2333C25.8633 9.99 25.3033 9.01333 25.9866 7.82L29.2133 2.17C29.4666 1.72333 29.4666 1.17 29.2133 0.723333C29.0866 0.503333 28.9066 0.32 28.6866 0.193333C28.4699 0.0666667 28.2199 0 27.9666 0H19.7599C18.8899 0 17.8266 0.62 17.3866 1.38L1.43993 29.1833C1.00993 29.9433 1.00993 31.1833 1.43993 31.9433L5.54326 39.1033C6.22993 40.3 7.34993 40.3 8.03326 39.1067L11.2433 33.54C11.9299 32.3533 13.0499 32.3533 13.7333 33.5467L16.6399 38.6167C17.0733 39.38 18.1433 40 19.0133 40H37.9733C38.8433 40 39.9099 39.38 40.3433 38.6167L44.8966 30.67C45.3333 29.9133 45.3366 28.67 44.9033 27.91ZM32.1799 27.1167C32.8566 28.31 32.2933 29.29 30.9266 29.29H16.1799C14.8099 29.29 14.2499 28.3133 14.9366 27.12L22.3133 14.2367C22.9999 13.0433 24.1166 13.0433 24.8033 14.2367L32.1799 27.1167Z" fill="#6B7280"/>
</g>
<defs>
<clipPath id="clip0_330_989">
<rect width="226.667" height="40" fill="white" transform="translate(0.166626)"/>
</clipPath>
</defs>
</svg>
