<svg width="36" height="24" viewBox="0 0 36 24" fill="none" xmlns="http://www.w3.org/2000/svg">
<path d="M32.2599 2.14023V3.24023C32.2599 3.60023 31.9599 3.89023 31.6099 3.89023H24.0399C23.6799 3.89023 23.3899 3.60023 23.3899 3.24023V2.14023C23.3899 1.79023 23.6799 1.49023 24.0399 1.49023H31.6099C31.9599 1.49023 32.2599 1.79023 32.2599 2.14023Z" fill="#6B7280"/>
<path d="M33.6699 8.36994C32.1999 6.74994 30.2099 5.93994 27.6799 5.93994C25.4299 5.93994 23.5699 6.70994 22.0899 8.25994C20.6299 9.80994 19.8899 11.9599 19.8899 14.6899C19.8899 16.9799 20.4399 18.8699 21.5699 20.3799C22.9899 22.2499 25.1799 23.1899 28.1399 23.1899C29.9999 23.1899 31.5599 22.7799 32.7999 21.9399C33.9999 21.1499 35.4199 19.2699 35.4699 17.8599C35.4899 17.7499 35.4499 17.6499 35.3499 17.6299L31.1899 17.5899C31.1099 17.5799 31.0199 17.6299 31.0099 17.6999C30.5799 19.2999 29.1199 19.5799 28.1599 19.5799C27.1299 19.5799 26.2699 19.3799 25.5799 18.6599C24.9099 17.9699 24.5499 17.2199 24.4999 16.0099C24.4999 15.9299 24.5699 15.8399 24.6699 15.8399H35.5999C35.6999 15.8399 35.7699 15.7599 35.7699 15.6699C35.8199 11.2999 35.0899 9.96994 33.6699 8.36994ZM31.1399 12.7399H24.7499C24.6499 12.7399 24.5799 12.6599 24.5799 12.5699C24.6399 11.6499 24.9099 11.0099 25.5199 10.3399C26.1599 9.63994 26.9699 9.29994 27.9499 9.29994C28.9299 9.29994 29.6399 9.62994 30.2999 10.2799C30.9099 10.9099 31.3099 11.7299 31.3099 12.5699C31.3099 12.6599 31.2399 12.7399 31.1399 12.7399Z" fill="#6B7280"/>
<path d="M17.6299 13.32C16.9599 12.46 16.03 11.82 14.85 11.4C14.74 11.37 14.72 11.2 14.84 11.15C15.63 10.71 16.29 10.11 16.79 9.33004C17.34 8.46004 17.6299 7.49004 17.6299 6.44004C17.6299 5.47004 17.3999 4.61004 16.9399 3.82004C16.4899 3.04004 15.9299 2.41004 15.2499 1.95004C14.5699 1.48004 13.8 1.16004 12.95 1.02004C12.08 0.860039 10.78 0.790039 9.71997 0.790039H1.03998C0.269978 0.790039 0.219971 0.850039 0.219971 0.940039V23.07C0.219971 23.14 0.269978 23.21 1.03998 23.21H8.40997C10.57 23.18 12.36 23.14 13.1 23.05C14.28 22.91 15.28 22.57 16.09 21.98C16.89 21.42 17.5299 20.65 17.9999 19.68C18.4599 18.71 18.69 17.73 18.71 16.71C18.71 15.41 18.3499 14.28 17.6299 13.32ZM5.33997 4.69004C5.33997 4.62004 5.38998 4.55004 5.47998 4.55004H7.20996C9.31996 4.55004 10.59 4.56004 11.03 4.62004C11.77 4.70004 12.33 4.97004 12.7 5.40004C13.09 5.84004 13.27 6.40004 13.27 7.09004C13.27 7.82004 13.06 8.40004 12.62 8.84004C12.19 9.28004 11.6 9.55004 10.83 9.64004C10.4 9.68004 9.31996 9.71004 7.57996 9.71004H5.48999C5.41999 9.71004 5.34997 9.64004 5.33997 9.58004V4.69004ZM13.47 18.39C13.05 18.86 12.52 19.15 11.85 19.28C11.41 19.38 10.4 19.42 8.78998 19.42H5.48999C5.40999 19.42 5.34998 19.37 5.34998 19.28V13.58C5.34998 13.51 5.40999 13.44 5.48999 13.44H8.26996C10.3 13.44 11.61 13.55 12.22 13.76C12.83 13.98 13.29 14.32 13.62 14.77C13.94 15.24 14.1 15.81 14.1 16.48C14.1 17.28 13.89 17.92 13.47 18.39Z" fill="#6B7280"/>
</svg>
