<svg width="64" height="64" viewBox="0 0 64 64" fill="none" xmlns="http://www.w3.org/2000/svg">
<path d="M58.0001 15.9999V23.9999C58.0001 24.5304 57.7893 25.0391 57.4143 25.4141C57.0392 25.7892 56.5305 25.9999 56.0001 25.9999C55.4696 25.9999 54.9609 25.7892 54.5858 25.4141C54.2108 25.0391 54.0001 24.5304 54.0001 23.9999V15.9999C54.0001 11.7946 52.2054 9.99993 48.0001 9.99993H16.0001C11.7947 9.99993 10.0001 11.7946 10.0001 15.9999V51.1706L14.5867 46.5866C14.772 46.4005 14.9923 46.2528 15.2348 46.1521C15.4774 46.0515 15.7374 45.9997 16.0001 45.9999H32.0001C32.5305 45.9999 33.0392 46.2106 33.4143 46.5857C33.7893 46.9608 34.0001 47.4695 34.0001 47.9999C34.0001 48.5304 33.7893 49.0391 33.4143 49.4142C33.0392 49.7892 32.5305 49.9999 32.0001 49.9999H16.8294L9.41339 57.4133C9.2282 57.5995 9.00797 57.7472 8.76539 57.8479C8.52281 57.9486 8.2627 58.0003 8.00006 57.9999C7.46962 57.9999 6.96092 57.7892 6.58584 57.4142C6.21077 57.0391 6.00006 56.5304 6.00006 55.9999V15.9999C5.84346 14.6488 5.99439 13.2798 6.44157 11.9953C6.88875 10.7108 7.62059 9.54399 8.58235 8.58223C9.54411 7.62047 10.7109 6.88863 11.9954 6.44145C13.28 5.99427 14.649 5.84334 16.0001 5.99993H48.0001C49.3512 5.84334 50.7202 5.99427 52.0047 6.44145C53.2892 6.88863 54.456 7.62047 55.4178 8.58223C56.3795 9.54399 57.1114 10.7108 57.5585 11.9953C58.0057 13.2798 58.1567 14.6488 58.0001 15.9999ZM56.0001 39.3333H51.3334V34.6666C51.3334 34.1362 51.1227 33.6275 50.7476 33.2524C50.3725 32.8773 49.8638 32.6666 49.3334 32.6666C48.803 32.6666 48.2942 32.8773 47.9192 33.2524C47.5441 33.6275 47.3334 34.1362 47.3334 34.6666V39.3333H42.6667C42.1363 39.3333 41.6276 39.544 41.2525 39.9191C40.8774 40.2941 40.6667 40.8028 40.6667 41.3333C40.6667 41.8637 40.8774 42.3724 41.2525 42.7475C41.6276 43.1226 42.1363 43.3333 42.6667 43.3333H47.3334V47.9999C47.3334 48.5304 47.5441 49.0391 47.9192 49.4142C48.2942 49.7892 48.803 49.9999 49.3334 49.9999C49.8638 49.9999 50.3725 49.7892 50.7476 49.4142C51.1227 49.0391 51.3334 48.5304 51.3334 47.9999V43.3333H56.0001C56.5305 43.3333 57.0392 43.1226 57.4143 42.7475C57.7893 42.3724 58.0001 41.8637 58.0001 41.3333C58.0001 40.8028 57.7893 40.2941 57.4143 39.9191C57.0392 39.544 56.5305 39.3333 56.0001 39.3333ZM21.3334 24.6666H42.6667C43.1972 24.6666 43.7059 24.4559 44.0809 24.0808C44.456 23.7057 44.6667 23.197 44.6667 22.6666C44.6667 22.1362 44.456 21.6275 44.0809 21.2524C43.7059 20.8773 43.1972 20.6666 42.6667 20.6666H21.3334C20.803 20.6666 20.2942 20.8773 19.9192 21.2524C19.5441 21.6275 19.3334 22.1362 19.3334 22.6666C19.3334 23.197 19.5441 23.7057 19.9192 24.0808C20.2942 24.4559 20.803 24.6666 21.3334 24.6666ZM34.6667 31.3333H21.3334C20.803 31.3333 20.2942 31.544 19.9192 31.9191C19.5441 32.2941 19.3334 32.8028 19.3334 33.3333C19.3334 33.8637 19.5441 34.3724 19.9192 34.7475C20.2942 35.1226 20.803 35.3333 21.3334 35.3333H34.6667C35.1972 35.3333 35.7059 35.1226 36.0809 34.7475C36.456 34.3724 36.6667 33.8637 36.6667 33.3333C36.6667 32.8028 36.456 32.2941 36.0809 31.9191C35.7059 31.544 35.1972 31.3333 34.6667 31.3333Z" fill="#111827"/>
</svg>
