<svg width="64" height="64" viewBox="0 0 64 64" fill="none" xmlns="http://www.w3.org/2000/svg">
<g clip-path="url(#clip0_153_43)">
<path d="M47.5291 16.4709C44.2144 6.89325 35.1436 0 24.5 0C11.0251 0 0 11.0267 0 24.5C0 35.1436 6.89325 44.2144 16.4709 47.5291C19.7856 57.1068 28.8564 64 39.5 64C52.9749 64 64 52.9733 64 39.5C64 28.8564 57.1068 19.7856 47.5291 16.4709ZM3.75 24.5C3.75 13.0584 13.0584 3.75 24.5 3.75C32.6211 3.75 39.66 8.49725 43.0216 15.3779C41.8713 15.2124 40.6958 15.125 39.5 15.125C26.0255 15.125 15.125 26.0994 15.125 39.5C15.125 40.6958 15.2124 41.8713 15.3779 43.0216C8.49725 39.66 3.75 32.6211 3.75 24.5ZM37.6909 40.3425L23.6575 26.3091C24.4596 25.3474 25.3474 24.4596 26.3091 23.6575L40.3425 37.6909C39.5404 38.6526 38.6526 39.5404 37.6909 40.3425ZM30.8615 44.1198L19.8803 33.1386C20.2994 31.849 20.8423 30.6149 21.495 29.45L34.55 42.505C33.3853 43.1578 32.1511 43.7006 30.8615 44.1198ZM18.9695 37.5311L26.469 45.0305C24.105 45.2555 21.7469 45.0746 19.4854 44.5146C18.9257 42.255 18.7444 39.897 18.9695 37.5311ZM42.505 34.55L29.45 21.495C30.6149 20.8423 31.8489 20.2994 33.1385 19.8803L44.1198 30.8614C43.7006 32.151 43.1578 33.3851 42.505 34.55ZM45.0305 26.4689L37.531 18.9695C39.8951 18.7445 42.2531 18.9254 44.5146 19.4854C45.0742 21.745 45.2556 24.103 45.0305 26.4689ZM39.5 60.25C31.3789 60.25 24.34 55.5027 20.9784 48.6221C37.1561 50.9494 50.9399 37.0901 48.6222 20.9783C55.5028 24.34 60.25 31.3789 60.25 39.5C60.25 50.9416 50.9416 60.25 39.5 60.25Z" fill="#111827"/>
</g>
<defs>
<clipPath id="clip0_153_43">
<rect width="64" height="64" fill="white"/>
</clipPath>
</defs>
</svg>
