<svg width="64" height="64" viewBox="0 0 64 64" fill="none" xmlns="http://www.w3.org/2000/svg">
<g clip-path="url(#clip0_153_37)">
<path d="M63.618 23.6388C64.1721 22.9404 64.115 21.8682 63.5014 21.2248L48.3741 4.97262C48.0194 4.5915 47.5222 4.375 47.0015 4.375H18.2474C17.7525 4.375 17.2777 4.57063 16.9265 4.91925L0.548998 21.1714C-0.139877 21.8336 -0.187002 23.0037 0.444248 23.7208L30.5737 58.9753C31.2797 59.8416 32.719 59.8414 33.425 58.9753L63.5544 23.7206C63.5759 23.6936 63.5972 23.6665 63.618 23.6388ZM40.7945 20.6271H23.2041L31.9992 9.30675L40.7945 20.6271ZM41.9626 24.3776L31.9994 52.1955L22.0361 24.3776H41.9626ZM18.0522 24.3776L26.7907 48.776L5.93937 24.3776H18.0522ZM45.9464 24.3776H58.0591L37.2079 48.776L45.9464 24.3776ZM57.8214 20.6271H45.5439L35.831 8.1255H46.1851L57.8214 20.6271ZM19.0199 8.1255H28.1676L18.4546 20.6271H6.42187L19.0199 8.1255Z" fill="#111827"/>
</g>
<defs>
<clipPath id="clip0_153_37">
<rect width="64" height="64" fill="white"/>
</clipPath>
</defs>
</svg>
