<svg width="42" height="42" viewBox="0 0 42 42" fill="none" xmlns="http://www.w3.org/2000/svg">
<path d="M40.6899 16.9499C40.4299 15.6599 40.03 14.3899 39.52 13.1699C39.01 11.9799 38.3899 10.8399 37.6599 9.7599C36.9499 8.6999 36.1199 7.6999 35.2099 6.7899C34.3099 5.8799 33.2999 5.0499 32.2399 4.3299C31.1599 3.6099 30.0199 2.9899 28.8199 2.4799C27.6099 1.9699 26.3399 1.5699 25.0499 1.3099C23.7199 1.0399 22.3599 0.899902 20.9999 0.899902C19.6399 0.899902 18.27 1.0399 16.95 1.3099C15.66 1.5699 14.3799 1.9699 13.1699 2.4799C11.9799 2.9899 10.8299 3.6099 9.75995 4.3299C8.68995 5.0499 7.68991 5.8799 6.77991 6.7899C5.86991 7.6999 5.04996 8.6999 4.32996 9.7599C3.59996 10.8299 2.97992 11.9799 2.47992 13.1699C1.95992 14.3899 1.56993 15.6599 1.29993 16.9499C1.02993 18.2799 0.899902 19.6399 0.899902 20.9999C0.899902 22.3599 1.02993 23.7299 1.29993 25.0499C1.56993 26.3399 1.96992 27.6199 2.47992 28.8299C2.97992 30.0199 3.59996 31.1699 4.32996 32.2399C5.04996 33.3099 5.86991 34.3099 6.77991 35.2199C7.68991 36.1299 8.68995 36.9499 9.75995 37.6699C10.8299 38.3999 11.9799 39.0199 13.1699 39.5199C14.3899 40.0299 15.66 40.4299 16.95 40.6999C18.27 40.9699 19.6299 41.0999 20.9999 41.0999C22.3699 41.0999 23.7199 40.9699 25.0499 40.6999C26.3399 40.4299 27.6099 40.0299 28.8199 39.5199C30.0099 39.0199 31.1599 38.3999 32.2399 37.6699C33.3099 36.9499 34.3099 36.1299 35.2099 35.2199C36.1199 34.3099 36.9499 33.3099 37.6599 32.2399C38.3899 31.1699 39.01 30.0199 39.52 28.8299C40.03 27.6099 40.4299 26.3399 40.6899 25.0499C40.9599 23.7299 41.0999 22.3699 41.0999 20.9999C41.0999 19.6299 40.9599 18.2699 40.6899 16.9499ZM20.9999 3.8399C25.3399 3.8399 29.31 5.4499 32.33 8.1199C32.29 8.1799 29.8499 11.8999 23.3699 14.3399C20.4299 8.9399 17.21 4.6599 16.95 4.3199C18.25 4.0099 19.5999 3.8399 20.9999 3.8399ZM16.8799 4.3299C16.8799 4.3299 16.86 4.3399 16.83 4.3499C16.85 4.3499 16.8699 4.3499 16.8799 4.3299ZM13.6699 5.4699C13.8999 5.7799 17.0699 10.0799 20.0499 15.3699C11.7999 17.5599 4.64995 17.4699 4.19995 17.4599C5.30995 12.1499 8.87992 7.7399 13.6699 5.4699ZM8.21991 32.4599C5.48991 29.4199 3.82996 25.4099 3.82996 20.9999C3.82996 20.8199 3.8399 20.6399 3.8399 20.4599C4.1399 20.4599 12.6299 20.6599 21.4699 18.0099C21.9599 18.9699 22.4299 19.9499 22.8599 20.9299C22.6399 20.9899 22.4099 21.0599 22.1799 21.1299C12.9299 24.1299 8.22991 32.4599 8.21991 32.4599ZM20.9999 38.1699C17.0199 38.1699 13.36 36.7999 10.45 34.5299C10.48 34.4699 13.7799 27.3399 23.9199 23.8099C23.9499 23.7999 23.9899 23.7799 24.0299 23.7699C26.4399 30.0499 27.44 35.3099 27.7 36.8099C25.64 37.6799 23.3699 38.1699 20.9999 38.1699ZM30.5899 35.2399C30.4099 34.1999 29.4999 29.1699 27.2499 22.9799C32.7899 22.0899 37.59 23.6099 37.95 23.7299C37.18 28.5099 34.4399 32.6399 30.5899 35.2399ZM26.2 20.2699C26.08 19.9699 25.96 19.6799 25.83 19.3799C25.47 18.5399 25.0899 17.7099 24.6899 16.8899C31.4699 14.1199 34.2199 10.1399 34.2499 10.0999C36.6599 13.0199 38.1199 16.7599 38.1499 20.8299C37.9099 20.7799 32.1 19.5299 26.2 20.2699Z" fill="#6B7280"/>
</svg>
