<svg width="20" height="34" viewBox="0 0 20 34" fill="none" xmlns="http://www.w3.org/2000/svg">
<path d="M13.13 8.45981C13.1 9.72981 13.13 10.9598 13.13 12.2498H17.98C18.67 12.2498 18.9 12.4898 18.9 13.1798V18.2598C18.9 18.9498 18.68 19.1598 17.99 19.1698H13.09V32.8698C13.09 33.5998 12.86 33.8298 12.14 33.8298H6.86003C6.23003 33.8298 5.98003 33.5798 5.98003 32.9498V19.1898H1.79002C1.14002 19.1898 0.900024 18.9498 0.900024 18.2898V13.1798C0.900024 12.5198 1.15003 12.2698 1.80003 12.2698H5.98003V8.58981C5.93003 6.92981 6.33002 5.29981 7.13002 3.84981C7.96002 2.38981 9.30003 1.27981 10.89 0.719809C11.92 0.349809 13.01 0.159809 14.11 0.169809H18.25C18.84 0.169809 19.09 0.429809 19.09 1.00981C19.11 2.62981 19.11 4.23981 19.11 5.83981C19.11 6.43981 18.86 6.67981 18.27 6.67981C17.13 6.67981 16 6.67981 14.87 6.71981C13.74 6.76981 13.13 7.27981 13.13 8.45981Z" fill="#6B7280"/>
</svg>
