<svg width="145" height="40" viewBox="0 0 145 40" fill="none" xmlns="http://www.w3.org/2000/svg">
<path d="M51.8117 1.60771L48.3334 12.5141C48.17 13.0258 47.695 13.3726 47.1583 13.3726H22.0597C21.5161 13.3726 21.0365 13.7279 20.8792 14.2482L13.3296 39.1252C13.1715 39.6447 12.6927 40.0008 12.1491 40.0008H1.23445C0.402459 40.0008 -0.19127 39.1938 0.0570165 38.4L7.6984 13.9299C7.85955 13.415 8.33608 13.0644 8.87583 13.0644H20.1073C20.651 13.0644 21.1298 12.7091 21.2879 12.1896L24.7222 0.874759C24.8803 0.355299 25.3592 0 25.9028 0H50.6359C51.4709 0 52.0647 0.812331 51.811 1.60771H51.8117Z" fill="#6B7280"/>
<path d="M39.7151 20.6513L35.8181 32.871C35.7417 33.1099 35.5197 33.2725 35.2683 33.2725H22.4553C22.0682 33.2725 21.7906 32.8987 21.9032 32.5288L25.6129 20.3092C25.6869 20.0664 25.9105 19.8999 26.165 19.8999H39.1653C39.5555 19.8999 39.8338 20.2799 39.7151 20.6513Z" fill="#6B7280"/>
<path d="M59.8702 25.0229V7.97478H72.9632V10.9461H64.051V15.008H72.0943V17.9793H64.051V25.022L59.8702 25.0229Z" fill="#6B7280"/>
<path d="M84.2799 19.5794V12.2373H88.3934V25.0238H84.4444V22.7014H84.2895C83.9547 23.4511 83.3995 24.0529 82.6239 24.5077C81.8483 24.9626 80.9034 25.1905 79.7901 25.1905C78.7991 25.1905 77.9263 24.9965 77.1739 24.6076C76.4204 24.2196 75.8335 23.6667 75.412 22.951C74.9906 22.2352 74.776 21.3773 74.7702 20.379V12.2382H78.8837V19.747C78.8905 20.5014 79.1252 21.0985 79.589 21.5364C80.0528 21.9753 80.6735 22.1938 81.4529 22.1938C81.9484 22.1938 82.4122 22.0949 82.8433 21.8981C83.2744 21.7012 83.6236 21.4083 83.8911 21.0194C84.1586 20.6314 84.2885 20.1511 84.2818 19.5794H84.2799Z" fill="#6B7280"/>
<path d="M104.016 15.8829L100.25 16.0826C100.185 15.8047 100.047 15.5542 99.8352 15.3291C99.6235 15.1041 99.3445 14.9242 99 14.7876C98.6555 14.652 98.2456 14.5833 97.7693 14.5833C97.1323 14.5833 96.5944 14.6982 96.1566 14.9289C95.7188 15.1596 95.5004 15.4657 95.5004 15.849C95.5004 16.1541 95.6418 16.4122 95.9257 16.6232C96.2086 16.8341 96.6945 17.0036 97.3835 17.1308L100.068 17.597C101.509 17.8522 102.585 18.2628 103.293 18.8288C104.002 19.3948 104.356 20.1388 104.356 21.0599C104.356 21.8981 104.071 22.6336 103.501 23.2655C102.932 23.8984 102.152 24.391 101.165 24.7432C100.177 25.0954 99.0394 25.2715 97.752 25.2715C95.7881 25.2715 94.2264 24.9174 93.064 24.2101C91.9017 23.5029 91.2214 22.5385 91.0222 21.317L95.0683 21.1343C95.1905 21.6504 95.4869 22.0431 95.9565 22.3124C96.426 22.5818 97.0284 22.7165 97.7616 22.7165C98.4948 22.7165 99.0635 22.5959 99.5042 22.3548C99.9449 22.1137 100.169 21.8011 100.175 21.4187C100.168 21.0966 100.01 20.832 99.7014 20.6238C99.3926 20.4157 98.9163 20.2565 98.2725 20.1454L95.7044 19.7047C94.2562 19.4551 93.1795 19.0219 92.4742 18.4059C91.7689 17.79 91.4167 17.0046 91.4167 16.0505C91.4167 15.2293 91.6755 14.522 92.1942 13.9278C92.7118 13.3345 93.4431 12.8758 94.3861 12.5547C95.3291 12.2326 96.4347 12.0715 97.7029 12.0715C99.5764 12.0715 101.051 12.4124 102.13 13.0952C103.208 13.778 103.837 14.7076 104.018 15.8839L104.016 15.8829Z" fill="#6B7280"/>
<path d="M109.018 10.5892C108.406 10.5892 107.883 10.414 107.448 10.0646C107.013 9.71519 106.797 9.29327 106.797 8.79884C106.797 8.3044 107.015 7.88154 107.453 7.52932C107.891 7.17709 108.412 7.00098 109.018 7.00098C109.623 7.00098 110.152 7.17615 110.587 7.52555C111.022 7.87495 111.239 8.29687 111.239 8.7913C111.239 9.28574 111.021 9.7086 110.587 10.0608C110.152 10.413 109.63 10.5892 109.018 10.5892ZM106.952 25.0238V12.2373H111.065V25.0238H106.952Z" fill="#6B7280"/>
<path d="M121.048 25.2734C119.548 25.2734 118.253 24.9975 117.162 24.4456C116.071 23.8937 115.229 23.1224 114.637 22.1316C114.044 21.1409 113.749 19.991 113.749 18.6809C113.749 17.3709 114.045 16.2041 114.637 15.2142C115.229 14.2235 116.071 13.4522 117.162 12.9003C118.253 12.3484 119.548 12.0725 121.048 12.0725C122.549 12.0725 123.844 12.3484 124.935 12.9003C126.026 13.4522 126.867 14.2235 127.46 15.2142C128.051 16.205 128.348 17.3606 128.348 18.6809C128.348 20.0013 128.051 21.1409 127.46 22.1316C126.867 23.1224 126.026 23.8937 124.935 24.4456C123.844 24.9975 122.549 25.2734 121.048 25.2734ZM121.068 22.5262C121.75 22.5262 122.319 22.3586 122.777 22.0224C123.234 21.6871 123.579 21.2275 123.815 20.6446C124.05 20.0616 124.167 19.3986 124.167 18.6555C124.167 17.9124 124.05 17.2485 123.815 16.6665C123.58 16.0835 123.234 15.623 122.777 15.2849C122.319 14.9468 121.75 14.7773 121.068 14.7773C120.385 14.7773 119.801 14.9468 119.335 15.2849C118.868 15.6239 118.517 16.0845 118.282 16.6665C118.047 17.2494 117.93 17.9124 117.93 18.6555C117.93 19.3986 118.047 20.0625 118.282 20.6446C118.517 21.2275 118.868 21.6862 119.335 22.0224C119.801 22.3586 120.379 22.5262 121.068 22.5262Z" fill="#6B7280"/>
<path d="M135.146 17.6309V25.0229H131.032V12.2363H134.953V14.4919H135.127C135.455 13.7479 136.005 13.1583 136.778 12.7232C137.551 12.2872 138.487 12.0696 139.588 12.0696C140.617 12.0696 141.515 12.2636 142.282 12.6526C143.048 13.0416 143.643 13.5944 144.068 14.313C144.493 15.0315 144.705 15.8876 144.705 16.8812V25.022H140.591V17.5131C140.598 16.7305 140.366 16.1184 139.895 15.6776C139.426 15.2368 138.778 15.0155 137.955 15.0155C137.401 15.0155 136.914 15.1182 136.492 15.3235C136.071 15.5288 135.743 15.8273 135.507 16.2182C135.272 16.609 135.151 17.0799 135.145 17.629L135.146 17.6309Z" fill="#6B7280"/>
<path d="M115.139 39.839H112.251L116.653 28.8456H120.128L124.523 39.839H121.634L118.44 31.3573H118.34L115.139 39.839ZM114.958 35.5181H121.783V37.3329H114.958V35.5181Z" fill="#6B7280"/>
<path d="M129.08 39.9727C128.354 39.9727 127.696 39.8107 127.109 39.4868C126.522 39.1628 126.057 38.6853 125.715 38.0534C125.373 37.4214 125.201 36.6463 125.201 35.7262C125.201 34.8061 125.377 33.9952 125.731 33.3671C126.084 32.7389 126.553 32.269 127.141 31.9553C127.728 31.6427 128.373 31.4854 129.074 31.4854C129.609 31.4854 130.057 31.5636 130.416 31.719C130.775 31.8743 131.065 32.0684 131.287 32.2991C131.51 32.5298 131.679 32.7559 131.795 32.9781H131.875V28.8446H134.521V39.838H131.906V38.5177H131.795C131.67 38.7465 131.494 38.9735 131.268 39.1967C131.042 39.4208 130.75 39.6054 130.391 39.7523C130.032 39.8993 129.595 39.9727 129.08 39.9727ZM129.921 38.1532C130.348 38.1532 130.711 38.0524 131.007 37.8499C131.304 37.6475 131.533 37.364 131.693 36.9995C131.852 36.6341 131.932 36.2065 131.932 35.7168C131.932 35.2271 131.853 34.8005 131.695 34.4388C131.538 34.0772 131.31 33.7984 131.01 33.6016C130.711 33.4047 130.348 33.3068 129.921 33.3068C129.494 33.3068 129.118 33.4085 128.819 33.6129C128.52 33.8172 128.294 34.0998 128.141 34.4614C127.987 34.8231 127.911 35.2412 127.911 35.7178C127.911 36.1943 127.989 36.6209 128.145 36.9873C128.301 37.3546 128.527 37.6409 128.823 37.8462C129.12 38.0524 129.486 38.1551 129.922 38.1551L129.921 38.1532Z" fill="#6B7280"/>
<path d="M144.653 33.9453L142.224 34.0744C142.183 33.8954 142.093 33.7334 141.957 33.5884C141.82 33.4434 141.64 33.3275 141.418 33.2399C141.195 33.1523 140.931 33.1081 140.624 33.1081C140.213 33.1081 139.867 33.1825 139.584 33.3313C139.302 33.4801 139.16 33.6779 139.16 33.9246C139.16 34.1214 139.252 34.2881 139.435 34.4237C139.617 34.5594 139.93 34.6686 140.375 34.7515L142.106 35.0519C143.035 35.2167 143.729 35.4814 144.185 35.8468C144.641 36.2122 144.87 36.6916 144.87 37.2849C144.87 37.8255 144.686 38.2992 144.319 38.707C143.951 39.1148 143.449 39.4321 142.812 39.6601C142.175 39.887 141.441 40.001 140.611 40.001C139.345 40.001 138.338 39.7731 137.588 39.3163C136.838 38.8605 136.4 38.238 136.271 37.4506L138.879 37.3329C138.958 37.6654 139.149 37.9187 139.452 38.092C139.755 38.2653 140.143 38.3519 140.616 38.3519C141.09 38.3519 141.455 38.2738 141.74 38.1184C142.024 37.963 142.168 37.7614 142.173 37.5147C142.169 37.3075 142.067 37.1361 141.868 37.0023C141.669 36.8686 141.362 36.765 140.946 36.6934L139.29 36.409C138.356 36.248 137.662 35.9692 137.207 35.5718C136.752 35.1743 136.525 34.6686 136.525 34.0527C136.525 33.5234 136.692 33.0666 137.026 32.6843C137.36 32.301 137.832 32.0062 138.44 31.799C139.048 31.5918 139.761 31.4873 140.579 31.4873C141.786 31.4873 142.738 31.7077 143.434 32.1475C144.129 32.5873 144.534 33.1872 144.651 33.9453H144.653Z" fill="#6B7280"/>
<path d="M108.008 34.4021H59.8702V37.0532H108.008V34.4021Z" fill="#6B7280"/>
</svg>
