<svg width="40" height="40" viewBox="0 0 40 40" fill="none" xmlns="http://www.w3.org/2000/svg">
<path fill-rule="evenodd" clip-rule="evenodd" d="M39.7001 20.5001C39.7001 29.4201 34.0601 36.9801 26.2401 39.6601C25.2401 39.8501 24.8901 39.2301 24.8901 38.6901V37.5701C24.9001 36.5201 24.9101 34.9501 24.9101 33.1501C24.9101 31.2601 24.2801 30.0301 23.5801 29.4101C27.9601 28.9101 32.5701 27.2001 32.5701 19.4401C32.5701 17.2401 31.8101 15.4401 30.5401 14.0301C30.7501 13.5101 31.4201 11.4601 30.3501 8.68006C30.3501 8.68006 28.7001 8.14006 24.9401 10.7501C23.3601 10.3001 21.6801 10.0801 20.0101 10.0701C18.3301 10.0801 16.6501 10.3001 15.0801 10.7501C11.3201 8.14006 9.66006 8.68006 9.66006 8.68006C8.59006 11.4601 9.27005 13.5101 9.47005 14.0301C8.21005 15.4401 7.44006 17.2401 7.44006 19.4401C7.44006 27.1801 12.0401 28.9101 16.4101 29.4201C15.8501 29.9301 15.3401 30.8201 15.1601 32.1201C14.0401 32.6401 11.1901 33.5301 9.43005 30.4401C9.43005 30.4401 8.39006 28.5101 6.41006 28.3601C6.41006 28.3601 4.49005 28.3401 6.28005 29.5901C6.28005 29.5901 7.57005 30.2101 8.47005 32.5401C8.47005 32.5401 9.62005 36.4701 15.1001 35.2501C15.1001 36.1601 15.1101 36.9401 15.1201 37.5501C15.1201 38.0701 15.1301 38.4601 15.1301 38.6901C15.1301 39.2201 14.7701 39.8401 13.7801 39.6601C5.96005 36.9901 0.310059 29.4201 0.310059 20.5001C0.310059 9.35006 9.13005 0.310059 20.0001 0.310059C30.8701 0.310059 39.7001 9.35006 39.7001 20.5001Z" fill="#6B7280"/>
</svg>
