<svg width="64" height="64" viewBox="0 0 64 64" fill="none" xmlns="http://www.w3.org/2000/svg">
<path d="M36 36H28C26.9391 36 25.9217 36.4214 25.1716 37.1716C24.4214 37.9217 24 38.9391 24 40V56C24 57.0609 24.4214 58.0783 25.1716 58.8284C25.9217 59.5786 26.9391 60 28 60H36C37.0609 60 38.0783 59.5786 38.8284 58.8284C39.5786 58.0783 40 57.0609 40 56V40C40 38.9391 39.5786 37.9217 38.8284 37.1716C38.0783 36.4214 37.0609 36 36 36ZM28 56V40H36V56H28Z" fill="#111827"/>
<path d="M16 42H8C6.93913 42 5.92172 42.4214 5.17157 43.1716C4.42143 43.9217 4 44.9391 4 46V56C4 57.0609 4.42143 58.0783 5.17157 58.8284C5.92172 59.5786 6.93913 60 8 60H16C17.0609 60 18.0783 59.5786 18.8284 58.8284C19.5786 58.0783 20 57.0609 20 56V46C20 44.9391 19.5786 43.9217 18.8284 43.1716C18.0783 42.4214 17.0609 42 16 42ZM8 56V46H16V56H8Z" fill="#111827"/>
<path d="M56 26H48C46.9391 26 45.9217 26.4214 45.1716 27.1716C44.4214 27.9217 44 28.9391 44 30V56C44 57.0609 44.4214 58.0783 45.1716 58.8284C45.9217 59.5786 46.9391 60 48 60H56C57.0609 60 58.0783 59.5786 58.8284 58.8284C59.5786 58.0783 60 57.0609 60 56V30C60 28.9391 59.5786 27.9217 58.8284 27.1716C58.0783 26.4214 57.0609 26 56 26ZM48 56V30H56V56H48Z" fill="#111827"/>
<path d="M12 34C12.1666 33.9998 12.3325 33.979 12.494 33.938C19.6526 32.1143 26.5402 29.3574 32.98 25.738C39.9906 21.7764 46.396 16.8286 52 11.046V16C52 16.5304 52.2107 17.0391 52.5858 17.4142C52.9609 17.7893 53.4696 18 54 18C54.5304 18 55.0392 17.7893 55.4142 17.4142C55.7893 17.0391 56 16.5304 56 16V6C56 5.46957 55.7893 4.96086 55.4142 4.58579C55.0392 4.21071 54.5304 4 54 4H44C43.4696 4 42.9609 4.21071 42.5858 4.58579C42.2107 4.96086 42 5.46957 42 6C42 6.53043 42.2107 7.03914 42.5858 7.41421C42.9609 7.78929 43.4696 8 44 8H49.352C43.9668 13.6178 37.7911 18.4203 31.02 22.256C24.8855 25.7003 18.3245 28.3228 11.506 30.056C11.0281 30.1714 10.6094 30.4587 10.33 30.8632C10.0505 31.2677 9.92975 31.7609 9.99085 32.2487C10.052 32.7365 10.2906 33.1848 10.6612 33.5078C11.0318 33.8308 11.5084 34.0061 12 34Z" fill="#111827"/>
</svg>
