<svg width="38" height="38" viewBox="0 0 38 38" fill="none" xmlns="http://www.w3.org/2000/svg">
<path d="M37.26 11.4201C37.17 9.46012 36.86 8.12012 36.41 6.95012C35.94 5.73012 35.22 4.62012 34.29 3.70012C33.37 2.77012 32.26 2.04012 31.03 1.58012C29.86 1.13012 28.53 0.820117 26.57 0.730117C24.61 0.640117 23.99 0.620117 19 0.620117C14.01 0.620117 13.38 0.640117 11.42 0.730117C9.45998 0.820117 8.12999 1.13012 6.95999 1.58012C5.72999 2.04012 4.61998 2.77012 3.69998 3.70012C2.76998 4.62012 2.04999 5.73012 1.57999 6.95012C1.12999 8.12012 0.81998 9.46012 0.72998 11.4201C0.63998 13.3701 0.619995 14.0001 0.619995 18.9901C0.619995 23.9801 0.63998 24.6101 0.72998 26.5701C0.81998 28.5201 1.13 29.8601 1.59 31.0301C2.05 32.2501 2.76998 33.3601 3.69998 34.2801C4.61998 35.2201 5.72999 35.9401 6.95999 36.4001C8.12999 36.8601 9.45998 37.1701 11.42 37.2501C13.38 37.3401 14.01 37.3701 19 37.3701C23.99 37.3701 24.61 37.3401 26.57 37.2501C28.53 37.1701 29.86 36.8601 31.03 36.4001C33.5 35.4501 35.45 33.5001 36.41 31.0301C36.86 29.8601 37.17 28.5201 37.26 26.5701C37.35 24.6101 37.37 23.9801 37.37 18.9901C37.37 14.0001 37.35 13.3701 37.26 11.4201ZM33.95 26.4201C33.87 28.2101 33.57 29.1801 33.32 29.8301C32.7 31.4301 31.43 32.7001 29.83 33.3101C29.18 33.5701 28.21 33.8701 26.42 33.9501C24.48 34.0401 23.9 34.0501 19 34.0501C14.1 34.0501 13.51 34.0401 11.57 33.9501C9.77998 33.8701 8.80997 33.5701 8.15997 33.3101C7.35997 33.0201 6.63999 32.5501 6.04999 31.9401C5.42999 31.3501 4.96998 30.6301 4.66998 29.8301C4.41998 29.1801 4.11998 28.2101 4.03998 26.4201C3.94998 24.4801 3.92999 23.9001 3.92999 18.9901C3.92999 14.0801 3.94998 13.5001 4.03998 11.5701C4.11998 9.77012 4.41998 8.80012 4.66998 8.15012C4.96998 7.36012 5.43999 6.63012 6.04999 6.04012C6.63999 5.43012 7.35997 4.96012 8.15997 4.67012C8.80997 4.41012 9.77998 4.12012 11.57 4.03012C13.51 3.94012 14.09 3.93012 19 3.93012C23.91 3.93012 24.48 3.95012 26.42 4.03012C28.21 4.12012 29.18 4.41012 29.83 4.67012C30.63 4.96012 31.35 5.43012 31.95 6.04012C32.56 6.63012 33.03 7.36012 33.32 8.15012C33.57 8.80012 33.87 9.77012 33.95 11.5701C34.04 13.5001 34.06 14.0801 34.06 18.9901C34.06 23.9001 34.04 24.4801 33.95 26.4201Z" fill="#6B7280"/>
<path d="M31.01 9.17998C31.01 10.4 30.02 11.39 28.8 11.39C27.58 11.39 26.6 10.4 26.6 9.17998C26.6 7.95998 27.59 6.97998 28.8 6.97998C30.01 6.97998 31.01 7.95998 31.01 9.17998Z" fill="#6B7280"/>
<path d="M19.0001 9.55029C13.7801 9.55029 9.56006 13.7803 9.56006 18.9903C9.56006 24.2003 13.7801 28.4303 19.0001 28.4303C24.2201 28.4303 28.4301 24.2003 28.4301 18.9903C28.4301 13.7803 24.2101 9.55029 19.0001 9.55029ZM19.0001 25.1203C15.6101 25.1203 12.8701 22.3703 12.8701 18.9903C12.8701 15.6103 15.6101 12.8703 19.0001 12.8703C22.3901 12.8703 25.1201 15.6103 25.1201 18.9903C25.1201 22.3703 22.3801 25.1203 19.0001 25.1203Z" fill="#6B7280"/>
</svg>
