<svg width="32" height="30" viewBox="0 0 32 30" fill="none" xmlns="http://www.w3.org/2000/svg">
<path d="M8.11002 3.84019C8.11002 5.72019 6.69001 7.23019 4.42001 7.23019H4.38C2.19 7.23019 0.77002 5.72019 0.77002 3.84019C0.77002 1.96019 2.22999 0.450195 4.45999 0.450195C6.68999 0.450195 8.07002 1.91019 8.11002 3.84019Z" fill="#6B7280"/>
<path d="M7.68002 9.91016H1.16003V29.5502H7.68002V9.91016Z" fill="#6B7280"/>
<path d="M31.22 18.2902V29.5502H24.69V19.0502C24.69 16.4102 23.75 14.6102 21.39 14.6102C19.58 14.6102 18.51 15.8202 18.04 16.9902C17.87 17.4102 17.82 18.0002 17.82 18.5902V29.5502H11.3C11.3 29.5502 11.38 11.7602 11.3 9.91019H17.82V12.7002C18.69 11.3602 20.24 9.4502 23.71 9.4502C28 9.4502 31.22 12.2602 31.22 18.2902Z" fill="#6B7280"/>
</svg>
