<svg width="263" height="40" viewBox="0 0 263 40" fill="none" xmlns="http://www.w3.org/2000/svg">
<g clip-path="url(#clip0_330_972)">
<path d="M2.11246 30.925C1.94996 30.7625 1.86996 30.6825 1.83996 30.59C1.81246 30.5075 1.81246 30.42 1.83996 30.3375C1.86996 30.245 1.94996 30.1625 2.11246 30.0025L11.965 20.115C12.125 19.955 12.205 19.8725 12.2975 19.8425C12.38 19.8175 12.4675 19.8175 12.55 19.8425C12.6425 19.8725 12.7225 19.955 12.8825 20.115L22.7375 30.0025C22.8975 30.1625 22.9775 30.245 23.0075 30.3375C23.035 30.42 23.035 30.5075 23.0075 30.59C22.9775 30.6825 22.8975 30.7625 22.7375 30.925L21.615 32.0475C18.3975 35.2775 16.79 36.89 14.935 37.495C13.3025 38.0275 11.545 38.0275 9.91246 37.495C8.05746 36.89 6.44996 35.2775 3.23246 32.0475L2.11246 30.925Z" fill="#6B7280"/>
<path d="M13.6025 19.3951C13.44 19.2326 13.36 19.1526 13.33 19.0601C13.3025 18.9776 13.3025 18.8901 13.33 18.8076C13.36 18.7151 13.44 18.6351 13.6025 18.4726L23.455 8.58756C23.615 8.42506 23.695 8.34506 23.7875 8.31506C23.87 8.28756 23.9575 8.28756 24.04 8.31506C24.1325 8.34506 24.2125 8.42506 24.3725 8.58756L34.2275 18.4726C34.3875 18.6351 34.4675 18.7151 34.4975 18.8076C34.525 18.8901 34.525 18.9776 34.4975 19.0601C34.4675 19.1526 34.3875 19.2326 34.2275 19.3951L24.3725 29.2826C24.2125 29.4426 24.1325 29.5226 24.04 29.5526C23.9575 29.5801 23.87 29.5801 23.7875 29.5526C23.695 29.5226 23.615 29.4426 23.455 29.2826L13.6025 19.3951Z" fill="#6B7280"/>
<path d="M25.0899 30.9225C24.9299 30.7625 24.8499 30.6825 24.8199 30.59C24.7924 30.5075 24.7924 30.4175 24.8199 30.335C24.8499 30.2425 24.9299 30.1625 25.0899 30.0025L34.9449 20.115C35.1049 19.955 35.1849 19.8725 35.2799 19.8425C35.3599 19.8175 35.4474 19.8175 35.5299 19.8425C35.6224 19.8725 35.7024 19.955 35.8649 20.115L45.7174 30.0025C45.8774 30.1625 45.9574 30.2425 45.9874 30.335C46.0149 30.4175 46.0149 30.5075 45.9874 30.59C45.9574 30.6825 45.8774 30.7625 45.7174 30.9225C42.1249 34.53 40.3274 36.3325 38.2574 37.015C36.4049 37.625 34.4049 37.625 32.5499 37.015C30.4799 36.3325 28.6849 34.53 25.0899 30.9225Z" fill="#6B7280"/>
<path d="M36.5825 19.3951C36.42 19.2326 36.34 19.1526 36.31 19.0601C36.285 18.9776 36.285 18.8901 36.31 18.8076C36.34 18.7151 36.42 18.6351 36.5825 18.4726L46.435 8.58756C46.595 8.42506 46.675 8.34506 46.7675 8.31506C46.85 8.28756 46.9375 8.28756 47.02 8.31506C47.1125 8.34506 47.1925 8.42506 47.355 8.58756L57.2075 18.4726C57.3675 18.6351 57.4475 18.7151 57.4775 18.8076C57.505 18.8901 57.505 18.9776 57.4775 19.0601C57.4475 19.1526 57.3675 19.2326 57.2075 19.3951L47.355 29.2826C47.1925 29.4426 47.1125 29.5226 47.02 29.5526C46.9375 29.5801 46.85 29.5801 46.7675 29.5526C46.675 29.5226 46.595 29.4426 46.435 29.2826L36.5825 19.3951Z" fill="#6B7280"/>
<path d="M48.0725 30.925C47.91 30.7625 47.83 30.6825 47.8 30.59C47.775 30.5075 47.775 30.42 47.8 30.3375C47.83 30.245 47.91 30.1625 48.0725 30.0025L57.925 20.115C58.085 19.955 58.165 19.8725 58.26 19.8425C58.34 19.8175 58.4275 19.8175 58.51 19.8425C58.6025 19.8725 58.6825 19.955 58.845 20.115L68.6975 30.0025C68.8575 30.1625 68.9375 30.245 68.9675 30.3375C68.995 30.42 68.995 30.5075 68.9675 30.59C68.9375 30.6825 68.8575 30.7625 68.6975 30.925L67.5775 32.0475C64.36 35.2775 62.75 36.89 60.895 37.495C59.2625 38.0275 57.505 38.0275 55.875 37.495C54.0175 36.89 52.41 35.2775 49.1925 32.0475L48.0725 30.925Z" fill="#6B7280"/>
<path d="M25.0675 7.86502C24.9075 7.70502 24.8275 7.62502 24.7975 7.53252C24.77 7.45002 24.77 7.36002 24.7975 7.27752C24.8275 7.18502 24.9075 7.10502 25.0675 6.94502C28.6625 3.33752 30.4575 1.53502 32.5275 0.85252C34.3825 0.24252 36.3825 0.24252 38.235 0.85252C40.305 1.53502 42.1025 3.33752 45.695 6.94502C45.855 7.10502 45.935 7.18502 45.965 7.27752C45.9925 7.36002 45.9925 7.45002 45.965 7.53252C45.935 7.62502 45.855 7.70502 45.695 7.86502L35.8425 17.7525C35.68 17.9125 35.6 17.995 35.5075 18.025C35.425 18.05 35.3375 18.05 35.255 18.025C35.1625 17.995 35.0825 17.9125 34.9225 17.7525L25.0675 7.86502Z" fill="#6B7280"/>
<path d="M112.853 4.99023H108.498L99.34 24.5227L90.14 4.99023H85.7875L82.3375 33.3827H87.3475L89.6475 14.3452L97.3275 30.1677H101.393L109.033 14.3027L111.29 33.3827H116.3L112.853 4.99023Z" fill="#6B7280"/>
<path d="M139.212 23.5751C139.212 17.5576 134.902 13.6426 129.44 13.6426C123.935 13.6426 119.377 17.6001 119.377 23.7401C119.377 29.7551 123.73 33.8776 129.44 33.8776C132.93 33.8776 136.337 32.3101 138.105 29.5101L134.902 27.0776C133.792 28.6426 131.78 29.5501 129.727 29.5501C126.852 29.5501 124.797 28.1076 124.265 25.4301H139.13C139.172 24.7301 139.212 24.1101 139.212 23.5751ZM124.265 22.0926C124.84 19.1651 126.932 17.8876 129.48 17.8876C132.15 17.8876 134.202 19.4551 134.49 22.0926H124.265Z" fill="#6B7280"/>
<path d="M149.387 14.1373V7.0498H144.622V14.1373H141.172V17.9298H144.622V33.3823H149.387V17.9298H153.452V14.1373H149.387Z" fill="#6B7280"/>
<path d="M170.948 16.8176C169.673 14.7976 167.128 13.6426 164.498 13.6426C159.078 13.6426 155.135 17.9301 155.135 23.7401C155.135 29.7151 159.24 33.8776 164.375 33.8776C167.128 33.8776 169.673 32.4751 170.948 30.3751V33.3826H175.71V14.1376H170.948V16.8176ZM165.363 29.4276C162.24 29.4276 159.9 26.8301 159.9 23.7401C159.9 20.6501 162.24 18.0951 165.32 18.0951C168.155 18.0951 170.863 20.4426 170.863 23.7401C170.863 26.9551 168.318 29.4276 165.363 29.4276Z" fill="#6B7280"/>
<path d="M188.7 27.3252L183.607 14.1377H178.475L186.482 33.3827H190.837L198.927 14.1377H193.752L188.7 27.3252Z" fill="#6B7280"/>
<path d="M204.008 10.2651C205.733 10.2651 207.088 8.9876 207.088 7.3376C207.088 5.6501 205.733 4.4126 204.008 4.4126C202.323 4.4126 200.885 5.6501 200.885 7.3376C200.885 8.9876 202.323 10.2651 204.008 10.2651ZM206.39 33.3826V14.1376H201.625V33.3826H206.39Z" fill="#6B7280"/>
<path d="M230.33 23.5751C230.33 17.5576 226.015 13.6426 220.552 13.6426C215.05 13.6426 210.492 17.6001 210.492 23.7401C210.492 29.7551 214.845 33.8776 220.552 33.8776C224.045 33.8776 227.455 32.3101 229.22 29.5101L226.015 27.0776C224.907 28.6426 222.895 29.5501 220.84 29.5501C217.965 29.5501 215.912 28.1076 215.377 25.4301H230.247C230.287 24.7301 230.33 24.1101 230.33 23.5751ZM215.377 22.0926C215.955 19.1651 218.047 17.8876 220.595 17.8876C223.265 17.8876 225.317 19.4551 225.605 22.0926H215.377Z" fill="#6B7280"/>
<path d="M253.11 26.5427L249.042 14.1377H244.812L240.747 26.5427L236.682 14.1377H231.547L238.652 33.3827H242.635L246.907 20.2377L251.385 33.3827H255.41L262.307 14.1377H257.175L253.11 26.5427Z" fill="#6B7280"/>
</g>
<defs>
<clipPath id="clip0_330_972">
<rect width="262.5" height="40" fill="white" transform="translate(0.25)"/>
</clipPath>
</defs>
</svg>
