<svg width="147" height="40" viewBox="0 0 147 40" fill="none" xmlns="http://www.w3.org/2000/svg">
<path d="M82.2534 5.68359V35.4874H77.7029V12.2041H77.6205L72.9051 35.4874H70.3796L65.6642 12.2041H65.5818V35.4874H61.0312V5.68359H67.8953L71.6041 23.1043H71.6865L75.3952 5.68359H82.2593H82.2534Z" fill="#6B7280"/>
<path d="M84.6914 35.4874V5.68359H89.9131V35.4874H84.6914Z" fill="#6B7280"/>
<path d="M92.3435 35.4874V5.68359H97.5652V31.0327H105.777V35.4932H92.3435V35.4874Z" fill="#6B7280"/>
<path d="M115.55 5.68359H120.689L114.331 35.4874H109.109L102.751 5.68359H107.891L111.682 26.3645H111.764L115.555 5.68359H115.55Z" fill="#6B7280"/>
<path d="M122.066 35.4874V5.68359H127.288V35.4874H122.066Z" fill="#6B7280"/>
<path d="M129.725 35.4874V5.68359H134.946V16.7049H135.029L140.504 5.68359H145.725L140.08 16.7857L146.437 35.4874H141.133L136.877 21.6155H136.795L134.94 24.9161V35.4816H129.719L129.725 35.4874Z" fill="#6B7280"/>
<path fill-rule="evenodd" clip-rule="evenodd" d="M28.0528 0C37.5071 0 45.4602 6.30698 47.7738 14.8644C36.8242 11.8984 26.0512 14.7663 21.9186 18.644C21.4595 19.5845 31.4966 16.4051 32.3384 17.7957C33.192 18.7305 26.8283 19.5095 28.3942 21.3791C32.5327 19.7577 36.7948 21.7715 37.301 17.8938L37.2127 17.8477L37.3069 17.865V17.8419C38.5314 18.0612 39.7323 18.3266 40.9038 18.6267C49.322 20.704 52.4538 23.7911 55.1441 27.715C52.8247 25.378 50.5465 23.7969 48.2506 22.8275C46.8495 32.5274 38.3371 39.9942 28.0528 39.9942C18.5984 39.9942 10.6453 33.6873 8.33174 25.1298C19.2813 28.0958 30.0484 25.2279 34.1869 21.3503C34.6461 20.4097 24.6089 23.5892 23.7671 22.1985C22.9135 21.2637 29.2772 20.4847 27.7113 18.6151C23.5552 20.2424 19.2696 18.2054 18.7986 22.1523C18.6455 22.1235 18.4925 22.0946 18.3394 22.0658C7.44282 20.0173 3.87538 16.6763 0.867188 12.2851C3.21605 14.6509 5.52959 16.2435 7.84902 17.2072C9.23243 7.4899 17.7507 0 28.0528 0Z" fill="#6B7280"/>
</svg>
