<svg width="188" height="40" viewBox="0 0 188 40" fill="none" xmlns="http://www.w3.org/2000/svg">
<g clip-path="url(#clip0_330_969)">
<path d="M53.2397 4.54251H61.6697L68.8222 21.6775H69.1497L76.3022 4.54501H84.7347V32.2175H78.1047V15.2175H77.8697L71.1047 32.04H66.8672L60.1022 15.125H59.8697V32.2175H53.2397V4.54251ZM87.4297 32.2175V11.4625H94.1547V32.2175H87.4297ZM90.7972 9.04251C89.8972 9.06001 89.0247 8.73001 88.3647 8.12501C87.6872 7.50251 87.3472 6.75501 87.3472 5.88001C87.3472 5.01751 87.6872 4.27751 88.3672 3.66501C89.0222 3.05251 89.8947 2.71751 90.7972 2.73251C91.7522 2.73251 92.5647 3.04501 93.2322 3.66501C93.9097 4.27751 94.2497 5.01501 94.2497 5.88001C94.2497 6.75501 93.9097 7.50251 93.2322 8.12501C92.5622 8.73751 91.7522 9.04251 90.7972 9.04251ZM103.612 20.38V32.2175H96.8847V11.4625H103.28V15.2725H103.515C103.982 14.0025 104.78 13.0075 105.907 12.285C107.035 11.5575 108.377 11.19 109.937 11.19C111.422 11.19 112.71 11.52 113.8 12.18C114.902 12.8275 115.79 13.775 116.357 14.9075C116.972 16.07 117.277 17.43 117.265 18.9875V32.2175H110.542V20.285C110.55 19.1325 110.255 18.2325 109.647 17.5825C109.052 16.9325 108.222 16.61 107.157 16.61C106.455 16.61 105.83 16.765 105.287 17.07C104.755 17.3675 104.325 17.815 104.052 18.3525C103.767 18.9125 103.622 19.5875 103.612 20.38ZM131.805 11.46V16.3275H118.477V11.4625L131.805 11.46ZM121.27 6.49001H127.995V25.69C127.995 26.095 128.06 26.425 128.187 26.6775C128.317 26.915 128.525 27.1 128.777 27.205C129.037 27.3025 129.342 27.3525 129.7 27.3525C129.957 27.3525 130.227 27.33 130.512 27.285C130.805 27.23 131.025 27.185 131.172 27.15L132.19 31.92C131.867 32.01 131.415 32.1225 130.827 32.2575C130.145 32.405 129.45 32.4925 128.75 32.5125C127.175 32.585 125.822 32.405 124.695 31.9725C123.575 31.5325 122.717 30.8475 122.122 29.92C121.535 28.99 121.252 27.825 121.27 26.42V6.49001ZM140.865 4.54251V32.2175H134.14V4.54251H140.865ZM143.595 32.2175V11.4625H150.32V32.2175H143.595ZM146.965 9.04251C146.062 9.06001 145.19 8.73001 144.53 8.12501C143.852 7.50251 143.515 6.75501 143.515 5.88001C143.515 5.01751 143.852 4.27751 144.53 3.66501C145.187 3.05251 146.06 2.71751 146.965 2.73251C147.92 2.73251 148.73 3.04501 149.4 3.66501C150.077 4.27751 150.417 5.01501 150.417 5.88001C150.417 6.75501 150.077 7.50251 149.4 8.12501C148.73 8.73751 147.92 9.04251 146.965 9.04251ZM165.057 11.4625V16.3275H151.47V11.4625H165.057ZM154.302 32.2175V10.4075C154.302 8.80501 154.61 7.47501 155.225 6.42001C155.807 5.38751 156.7 4.55751 157.782 4.04251C158.872 3.51001 160.135 3.24501 161.565 3.24501C162.5 3.24501 163.38 3.31751 164.205 3.46251C165.04 3.59751 165.657 3.71751 166.06 3.82751L164.99 8.66501C164.692 8.57251 164.39 8.50501 164.082 8.46251C163.755 8.41001 163.422 8.38251 163.092 8.38251C162.302 8.38251 161.762 8.55251 161.47 8.89501C161.175 9.23751 161.03 9.70501 161.03 10.3V32.215H154.302V32.2175ZM170.855 40C170.09 40.0025 169.325 39.94 168.572 39.81C167.942 39.715 167.325 39.5575 166.73 39.3375L168.215 34.54C168.875 34.7575 169.472 34.8825 170.002 34.92C170.545 34.955 171.007 34.87 171.392 34.6625C171.787 34.465 172.087 34.1075 172.3 33.595L172.56 32.9725L165.052 11.4625H172.092L175.985 26.2725H176.205L180.152 11.4625H187.235L179.272 34.2025C178.912 35.29 178.36 36.3075 177.635 37.2025C176.94 38.0775 176.035 38.76 174.927 39.255C173.827 39.7525 172.47 40 170.855 40ZM10.9072 14.5025C10.9372 10.7175 12.4647 7.09251 15.1672 4.39501H15.1597L4.7272 14.6475H4.7297C4.6922 14.6775 4.6547 14.71 4.6222 14.745C-0.625296 19.895 -1.2203 28.05 3.2222 33.8825L13.7622 23.525L13.8722 23.4225C11.9072 20.8525 10.8647 17.715 10.9072 14.5025ZM40.7147 14.6475V0.677512C40.7147 0.305012 40.4072 0.0025121 40.0297 1.20982e-05H25.8097C21.8547 -0.0049879 18.0622 1.54001 15.2697 4.29251L15.1672 4.39501L15.1497 4.40751C13.8197 5.74751 13.2472 8.05001 13.2022 10.59C17.0622 10.08 20.9747 11.08 24.0897 13.38C26.4422 15.1025 28.2222 17.4725 29.2072 20.1875C29.9822 22.3375 30.2397 24.635 29.9572 26.9C32.5822 26.735 35.0247 26.17 36.1397 25.2075L36.2447 25.105L36.3497 25.0075C39.1497 22.2625 40.7197 18.535 40.7147 14.6475ZM36.2447 25.1125C32.1697 29.035 26.1747 30.3325 20.7997 28.455C19.3947 27.965 18.0747 27.2675 16.8847 26.385L6.2347 36.8425C12.1722 41.195 20.4622 40.61 25.7072 35.4675L36.2447 25.1125Z" fill="#6B7280"/>
</g>
<defs>
<clipPath id="clip0_330_969">
<rect width="187.5" height="40" fill="white" transform="translate(0.25)"/>
</clipPath>
</defs>
</svg>
