<svg width="274" height="50" viewBox="0 0 274 50" fill="none" xmlns="http://www.w3.org/2000/svg">
<path d="M151.311 19.9722C150.372 19.4388 149.236 19.1305 147.945 19.1305C146.536 19.1305 145.361 19.4388 144.42 20.0499C143.495 20.6555 142.781 21.5361 142.386 22.5722H142.15V13.3611H137.142V37.5138H142.267V27.0388C142.267 26.2749 142.425 25.5888 142.736 25.0527C143.02 24.5166 143.458 24.0777 143.992 23.7916C144.539 23.486 145.167 23.3722 145.87 23.3722C146.928 23.3722 147.75 23.6777 148.297 24.2888C148.886 24.9027 149.158 25.7777 149.158 26.8888V37.5111H154.286V25.9722C154.286 24.5555 154.014 23.3361 153.506 22.3416C153.036 21.3083 152.292 20.5472 151.311 19.9722ZM117.211 20.3555C115.845 19.5527 114.239 19.1694 112.358 19.1694C110.481 19.1694 108.875 19.5527 107.506 20.3555C106.147 21.1111 105.042 22.2555 104.336 23.6416C103.589 25.0555 103.239 26.6611 103.239 28.5333C103.239 30.4027 103.589 32.0083 104.336 33.4222C105.053 34.7999 106.153 35.9416 107.506 36.7083C108.875 37.4722 110.478 37.8944 112.358 37.8944C114.239 37.8944 115.845 37.5138 117.211 36.7083C118.564 35.9388 119.664 34.7999 120.386 33.4222C121.128 32.0083 121.481 30.4027 121.481 28.5333C121.481 26.6611 121.128 25.0166 120.386 23.6416C119.678 22.2583 118.572 21.1138 117.211 20.3555ZM115.845 31.3222C115.57 32.1611 115.139 32.8111 114.55 33.2694C113.939 33.7527 113.178 34.0083 112.397 33.9944C111.536 33.9944 110.792 33.7666 110.206 33.2694C109.617 32.7722 109.189 32.1249 108.875 31.3222C108.583 30.4083 108.436 29.4527 108.442 28.4944C108.442 27.4249 108.6 26.5083 108.875 25.6666C109.189 24.8249 109.62 24.1777 110.206 23.7194C110.792 23.2222 111.536 22.9916 112.397 22.9916C113.261 22.9916 113.964 23.2222 114.55 23.7194C115.139 24.2138 115.57 24.8638 115.845 25.6666C116.156 26.5083 116.275 27.4222 116.275 28.4944C116.275 29.5638 116.117 30.4805 115.845 31.3222ZM186.545 19.1333C185.486 19.1333 184.586 19.4388 183.806 20.0111C183.022 20.5861 182.433 21.4249 182.12 22.5722H181.925V19.3999H176.956V37.5138H182.081V27.2722C182.081 26.5444 182.239 25.8944 182.592 25.3249C182.942 24.7472 183.411 24.3277 184 23.9861C184.628 23.6555 185.328 23.4861 186.036 23.4888C186.389 23.4888 186.781 23.5277 187.211 23.5638C187.639 23.6027 187.956 23.6805 188.225 23.7555V19.3249C187.995 19.2861 187.758 19.2083 187.445 19.2083C187.053 19.1694 186.781 19.1333 186.545 19.1333ZM171.864 21.4638C171.07 20.6999 170.122 20.1138 169.083 19.7444C167.992 19.3555 166.839 19.1638 165.678 19.1694C163.878 19.1694 162.272 19.5527 160.903 20.3555C159.575 21.1388 158.492 22.2777 157.772 23.6416C157.028 25.0555 156.675 26.6972 156.675 28.5333C156.675 30.4416 157.028 32.0861 157.772 33.4999C158.492 34.8638 159.595 35.9916 160.942 36.7472C162.311 37.5111 163.956 37.8944 165.875 37.8944C167.403 37.8944 168.772 37.6638 169.906 37.2055C171.003 36.7972 171.986 36.1305 172.767 35.2583C173.508 34.4166 174.017 33.1555 174.253 32.0083H169.475C169.281 32.4666 169.047 32.8499 168.695 33.1555C168.333 33.4638 167.922 33.7083 167.481 33.8833C166.972 34.0416 166.445 34.1194 165.914 34.111C165.053 34.111 164.308 33.9194 163.681 33.5749C163.064 33.2333 162.558 32.7138 162.236 32.0861C161.883 31.4361 161.725 30.6722 161.725 29.7555H174.37V28.3416C174.37 26.8138 174.133 25.4749 173.703 24.2916C173.3 23.2277 172.672 22.2638 171.864 21.4638ZM161.764 26.6222C161.806 25.9722 161.961 25.3611 162.272 24.8249C162.62 24.2444 163.103 23.7583 163.681 23.4111C164.314 23.0499 165.031 22.8666 165.756 22.8777C166.5 22.8777 167.167 23.0305 167.714 23.3749C168.303 23.6805 168.733 24.1388 169.047 24.6722C169.358 25.2472 169.514 25.8583 169.514 26.5861H161.764V26.6222ZM2.4695 34.3388C2.4695 34.3388 21.1417 47.3694 22.2778 48.0194C23.3751 48.6694 24.9806 48.8222 26.3889 48.2888C27.7973 47.7527 28.8556 46.5277 29.1695 45.3055C29.5223 44.0833 33.7889 22.0749 33.7889 22.0749C33.8278 21.7694 33.9445 20.8916 33.4751 20.0499C32.8084 18.9055 31.3223 18.2916 29.9889 18.6722C29.2584 18.8861 28.6306 19.3638 28.2306 20.0111C27.9945 20.4305 27.5639 21.1194 26.7806 21.7305C26.3362 22.0722 25.8501 22.3555 25.3334 22.5722C22.9445 23.5277 20.2834 22.7222 18.7556 20.8138C17.8167 19.6305 16.1334 19.1694 14.6445 19.7444C13.9389 20.0166 13.3417 20.5111 12.9417 21.1499C12.5389 21.7916 12.3528 22.5444 12.4139 23.2972C12.6862 25.6666 11.3167 28.0361 8.89172 28.9916C7.64728 29.4666 6.28339 29.5055 5.01394 29.1055C4.73894 29.0277 3.76117 28.7999 2.78339 29.3361C1.5695 29.9444 0.944499 31.3972 1.25561 32.6972C1.49172 33.5749 2.1945 34.1499 2.4695 34.3388ZM87.4195 29.6027H87.1445L80.3362 13.3638H73.8751V37.5138H78.9667V21.7305H79.1612L85.5417 37.3972H89.0278L95.4084 21.8055H95.6028V37.5138H100.695V13.3611H94.2334L87.4195 29.6027ZM266.795 37.5138H272.825L265.583 27.2333L272.472 19.3999H266.561L260.611 26.2777H260.336V13.3611H255.208V37.5138H260.336V31.7416L261.747 30.2138L266.795 37.5138ZM227.686 29.7916C227.686 30.5972 227.531 31.2833 227.178 31.8194C226.858 32.3388 226.414 32.7722 225.886 33.0805C225.353 33.3472 224.761 33.4916 224.164 33.4999C223.183 33.4999 222.403 33.1944 221.814 32.5805C221.228 31.9694 220.956 31.1305 220.914 30.0611V19.3999H215.786V30.9388C215.786 32.3527 216.058 33.5749 216.57 34.5694C217.117 35.5999 217.822 36.3638 218.761 36.8999C219.767 37.4638 220.9 37.7527 222.053 37.7388C223.458 37.7388 224.633 37.4333 225.572 36.7833C226.553 36.1361 227.256 35.2944 227.647 34.2249H227.845V37.5111H232.775V19.3999H227.686V29.7916ZM242.289 23.7194C242.895 23.2861 243.622 23.0583 244.364 23.0666C245.303 23.0666 246.047 23.3361 246.636 23.9083C247.222 24.4444 247.575 25.1694 247.733 26.0861H252.586C252.508 24.6722 252.114 23.4888 251.411 22.4194C250.706 21.3472 249.728 20.5833 248.514 20.0111C247.3 19.4388 245.889 19.1333 244.247 19.1333C242.367 19.1333 240.761 19.5138 239.392 20.3166C238.042 21.0861 236.939 22.2249 236.222 23.6027C235.478 25.0166 235.125 26.6222 235.125 28.4944C235.125 30.3277 235.478 31.9333 236.222 33.3472C236.964 34.7583 237.983 35.8694 239.353 36.6333C240.722 37.4361 242.367 37.8166 244.247 37.8166C245.889 37.8166 247.339 37.5138 248.553 36.9388C249.706 36.4055 250.683 35.5583 251.372 34.4916C252.075 33.4222 252.47 32.2388 252.547 30.8249H247.692C247.614 31.4749 247.378 32.0083 247.067 32.4666C246.753 32.9249 246.361 33.2694 245.889 33.4999C245.403 33.7333 244.867 33.8499 244.325 33.8444C243.583 33.8527 242.856 33.6222 242.25 33.1916C241.661 32.7749 241.192 32.1638 240.881 31.3583C240.567 30.5583 240.411 29.5611 240.411 28.4166C240.411 27.2722 240.567 26.3166 240.92 25.5138C241.233 24.7472 241.703 24.136 242.289 23.7194ZM207.486 14.8166C205.686 13.8583 203.531 13.3611 201.067 13.3611H192.22V37.5138H200.989C203.495 37.5138 205.647 37.0138 207.447 36.0583C209.225 35.1277 210.672 33.6749 211.597 31.8944C212.578 30.0972 213.045 27.9194 213.045 25.3999C213.045 22.8777 212.578 20.7361 211.597 18.9416C210.686 17.1749 209.25 15.7333 207.486 14.8166ZM207.056 29.8333C206.508 30.9777 205.725 31.8194 204.667 32.3527C203.611 32.8861 202.32 33.1555 200.753 33.1555H197.425V17.7583H200.753C202.281 17.7583 203.611 18.0249 204.667 18.5583C205.725 19.0944 206.508 19.9333 207.056 21.0416C207.606 22.1888 207.878 23.6416 207.878 25.3999C207.878 27.1944 207.606 28.6861 207.056 29.8333ZM132.831 33.3861H132.128C131.717 33.3888 131.322 33.2305 131.031 32.9444C130.736 32.6583 130.567 32.2666 130.561 31.8583V23.1833H134.045V19.3999H130.561V15.0805H125.433V19.4361H122.889V23.2194H125.433V32.8111C125.433 35.4083 127.586 37.5111 130.247 37.5111H134.32V33.3472L132.831 33.3861ZM33.5917 5.79716C33.5917 5.79716 40.2473 27.2722 40.7167 28.4166C41.1889 29.6027 42.3612 30.6722 43.8084 31.0916C45.2584 31.5111 46.8639 31.1694 47.8806 30.4027C48.9001 29.6388 66.0834 14.7777 66.0834 14.7777C66.6195 14.3111 66.9778 13.6777 67.1028 12.9805C67.3001 11.6833 66.4751 10.3055 65.2251 9.80828C64.5028 9.54439 63.7112 9.54439 62.9917 9.80828C62.2973 10.1083 61.5556 10.2777 60.8001 10.3055C60.0195 10.3444 59.4306 10.1916 59.1167 10.1138C56.6501 9.42494 55.0056 7.21383 55.0056 4.8055C54.9806 4.05272 54.7167 3.3305 54.2528 2.73883C53.789 2.14716 53.1473 1.71939 52.4223 1.51939C51.6862 1.31661 50.9028 1.35272 50.1862 1.61939C49.4695 1.88605 48.8556 2.37216 48.4306 3.00828C47.1362 5.07216 44.5917 6.10272 42.0862 5.41383C40.8167 5.06383 39.7084 4.2805 38.9556 3.19994C38.7584 2.96939 38.1334 2.2055 37.0389 2.01661C35.7056 1.78605 34.2584 2.54994 33.7112 3.73328C33.2806 4.65272 33.5139 5.49161 33.5917 5.79716Z" fill="#6B7280"/>
</svg>
