<svg width="204" height="52" viewBox="0 0 204 52" fill="none" xmlns="http://www.w3.org/2000/svg">
<g clip-path="url(#clip0_330_1181)">
<path d="M199.668 38.9554C197.905 38.9554 196.534 38.48 195.553 37.5266C194.567 36.5733 194.077 35.256 194.077 33.5721V23.1721H190.918V19.2821H194.094L194.659 14.0821H198.378V19.2821H203.227V23.1821H198.376V33.0125C198.368 33.5474 198.569 34.0649 198.935 34.4561C199.317 34.8622 199.857 35.0826 200.416 35.0603H203.227V38.9579H199.668V38.9554ZM180.678 39.3219C178.334 39.3219 176.447 38.7672 175.015 37.6554C173.597 36.5485 172.626 34.9737 172.277 33.2156H176.942C177.142 33.894 177.598 34.466 178.21 34.8226C178.958 35.256 179.817 35.464 180.681 35.4318C183.17 35.4318 184.42 34.736 184.42 33.4013C184.42 32.7327 184.029 32.2226 183.244 31.871C182.335 31.4847 181.384 31.2 180.411 31.0266C179.282 30.8112 178.163 30.5388 177.061 30.212C175.937 29.8826 174.939 29.2215 174.198 28.3177C173.423 27.3941 173.032 26.1758 173.027 24.6777C173.002 23.0706 173.733 21.5453 174.998 20.5499C176.318 19.4579 178.148 18.9106 180.485 18.9106C182.828 18.9106 184.668 19.4306 186.064 20.4706C187.434 21.5032 188.374 22.9963 188.709 24.6727H184.036C183.538 23.4346 182.357 22.8181 180.498 22.8181C178.504 22.8181 177.506 23.4371 177.509 24.6801C177.516 25.2596 177.838 25.7895 178.348 26.0668C178.987 26.4581 179.7 26.7081 180.441 26.8121C181.369 26.9731 182.283 27.1811 183.184 27.4461C184.12 27.7085 185.034 28.0354 185.928 28.4217C186.797 28.8129 187.533 29.4493 188.043 30.2541C188.637 31.1925 188.929 32.292 188.89 33.4038C188.927 35.0826 188.149 36.6748 186.8 37.6801C185.408 38.7721 183.368 39.3194 180.678 39.3219ZM166.767 20.8767C165.326 19.5916 163.315 18.9478 160.728 18.9478C158.658 18.9478 156.927 19.5 155.533 20.6093C154.146 21.6864 153.163 23.1969 152.745 24.8981H157.157C157.382 24.2518 157.808 23.6971 158.375 23.3158C159.066 22.8601 159.883 22.6299 160.71 22.6621C161.748 22.6051 162.771 22.9344 163.58 23.5857C164.301 24.2518 164.685 25.2051 164.625 26.1807V27.1241H159.594C157.261 27.1241 155.436 27.7061 154.119 28.86C152.836 29.9495 152.111 31.554 152.143 33.2329C152.086 34.8969 152.757 36.504 153.983 37.6381C155.208 38.792 156.835 39.3714 158.858 39.3714C160.114 39.4011 161.357 39.1139 162.469 38.5369C163.365 38.1036 164.125 37.4325 164.66 36.598H164.841L165.187 39.0222H168.924V26.1981C168.926 23.9422 168.208 22.1693 166.767 20.8767ZM164.645 31.3881C164.7 32.5718 164.219 33.7158 163.338 34.5081C162.474 35.2758 161.292 35.6596 159.794 35.6596C158.705 35.6596 157.87 35.412 157.291 34.9217C156.724 34.4636 156.402 33.7702 156.419 33.0447C156.419 31.3114 157.561 30.4497 159.797 30.4497H164.643V31.3906L164.645 31.3881ZM140.941 39.3689C138.108 39.3689 135.847 38.4626 134.151 36.655C132.46 34.8499 131.61 32.3489 131.608 29.1546C131.608 25.9554 132.457 23.4693 134.141 21.6567C135.83 19.8491 138.095 18.9478 140.941 18.9478C143.248 18.9478 145.162 19.5619 146.683 20.7901C148.176 21.9687 149.238 23.6005 149.709 25.4379H145.427C144.573 23.7739 142.82 22.7611 140.943 22.8478C139.529 22.7958 138.172 23.4049 137.276 24.492C136.347 25.5963 135.882 27.1489 135.882 29.1521C135.882 31.1579 136.347 32.7129 137.276 33.8173C138.172 34.9068 139.527 35.5184 140.941 35.4689C142.818 35.5457 144.568 34.5329 145.425 32.8689H149.709C149.236 34.7087 148.171 36.3455 146.68 37.5291C145.167 38.7523 143.256 39.3689 140.941 39.3689ZM115.696 46.436L118.682 39.0024L110.659 19.3241H115.329L120.742 33.2502H120.921L126.343 19.3241H131.006L120.173 46.436H115.696ZM106.63 20.8767C105.192 19.5916 103.179 18.9478 100.589 18.9478C98.521 18.9478 96.7876 19.5 95.3911 20.6093C94.0094 21.6864 93.0337 23.1969 92.6252 24.8981H97.0328C97.2581 24.2518 97.684 23.6971 98.2511 23.3158C98.9419 22.8577 99.7591 22.6299 100.589 22.6621C101.799 22.6621 102.755 22.9716 103.454 23.5857C104.177 24.2518 104.56 25.2026 104.498 26.1807V27.1241H99.4471C97.1219 27.1241 95.2994 27.7061 93.9747 28.86C92.6895 29.9495 91.964 31.554 91.9937 33.2329C91.9442 34.892 92.6153 36.4891 93.8335 37.6207C95.0593 38.7771 96.6886 39.354 98.7116 39.354C99.9671 39.3862 101.208 39.099 102.319 38.5221C103.216 38.0887 103.976 37.4152 104.511 36.5782H104.687L105.061 39.0049H108.787V26.1782C108.787 23.9373 108.069 22.1693 106.63 20.8767ZM104.501 31.3881C104.553 32.5718 104.075 33.7158 103.194 34.5081C102.329 35.2758 101.148 35.6596 99.6501 35.6596C98.5581 35.6596 97.7236 35.412 97.1442 34.9217C96.5796 34.4611 96.2577 33.7702 96.2726 33.0447C96.2874 31.3213 97.4116 30.4546 99.6501 30.4497H104.501V31.3906V31.3881ZM82.4208 29.1521C83.0869 28.9763 83.7307 28.7262 84.3374 28.4043C85.0505 28.0181 85.7092 27.555 86.3183 27.0177C87.0488 26.3466 87.6134 25.5146 87.9674 24.591C88.3884 23.504 88.5989 22.3476 88.5815 21.1813C88.5815 18.7051 87.7892 16.7217 86.1994 15.231C84.6097 13.7403 82.5421 13 79.9991 13.0049H69.1682V39.0049H73.8358V29.3552H77.3743L84.1021 39H89.3294L82.4208 29.1521ZM73.8358 25.2398V17.0931H79.6153C80.94 17.0931 81.9875 17.4398 82.7526 18.1653C83.5177 18.8908 83.909 19.8813 83.909 21.1664C83.909 22.4541 83.5227 23.4594 82.7452 24.1775C81.8934 24.9154 80.784 25.2967 79.6549 25.2398H73.8334H73.8358Z" fill="#6B7280"/>
<path d="M54.7518 25.995L52.028 28.7114L41.685 18.4229V12.9975L54.7518 25.995ZM28.633 0L25.9067 2.71143L36.2448 12.9975H41.6998L28.6305 0H28.633ZM22.7817 5.81905L20.053 8.53295L24.5398 13H29.9949L22.7817 5.81905ZM41.6998 24.643V30.0709L46.1694 34.5305L48.9006 31.819L41.6998 24.643ZM40.1274 34.7211L41.6874 33.1686H21.405V13L19.845 14.555L16.9156 11.6554L14.1894 14.3669L17.1137 17.2789L15.5513 18.819V21.9291L11.0644 17.4596L8.33812 20.181L15.5513 27.357V33.5648L5.21316 23.2861L2.48688 26L28.6305 52L31.3593 49.2886L21.0187 38.9975H27.2612L34.4743 46.1785L37.2031 43.4646L32.7137 38.9975H35.8387L37.3987 37.445L40.328 40.357L43.0543 37.643L40.125 34.7236L40.1274 34.7211Z" fill="#6B7280"/>
</g>
<defs>
<clipPath id="clip0_330_1181">
<rect width="203.048" height="52" fill="white" transform="translate(0.476196)"/>
</clipPath>
</defs>
</svg>
