<svg width="195" height="40" viewBox="0 0 195 40" fill="none" xmlns="http://www.w3.org/2000/svg">
<g clip-path="url(#clip0_290_78)">
<g clip-path="url(#clip1_290_78)">
<path d="M15.0627 12.1519L11.0123 14.6723C11.0123 14.6723 4.71129 6.48042 0.930664 4.31992L45.0899 -6.3749e-05C45.0899 -6.3749e-05 11.8214 4.68086 9.21175 6.30099L15.0627 12.1519Z" fill="#6B7280"/>
<path d="M47.7814 -6.37486e-05C47.7814 -6.37486e-05 32.8394 3.98282 21.8128 25.4282L17.5374 15.973L13.9373 18.6697C13.9373 18.6697 20.6885 30.9565 21.1117 37.3768C21.1117 37.3768 30.3428 10.6593 47.7814 -0.00732422" fill="#6B7280"/>
<path d="M3.54132 24.6399C3.54132 24.6399 14.9506 10.5442 41.3165 1.5765C27.4573 6.96451 14.6665 14.7739 3.54132 24.6399Z" fill="#6B7280"/>
<path d="M136.798 33.8555C136.549 33.4114 136.173 33.0516 135.719 32.8223C135.264 32.593 134.752 32.5046 134.246 32.5683C133.246 32.5416 132.266 32.8505 131.461 33.4458C130.663 34.0499 130.121 34.931 129.94 35.9154C129.873 36.1992 129.838 36.4898 129.836 36.7815C129.814 37.1372 129.878 37.4929 130.023 37.8187C130.167 38.1445 130.388 38.4308 130.666 38.6536C131.255 39.0714 131.969 39.2776 132.691 39.2386C133.277 39.2482 133.86 39.1367 134.401 38.9111C134.943 38.6856 135.432 38.3508 135.839 37.9276L136.4 38.3373C135.905 38.8555 135.309 39.2663 134.649 39.5441C133.989 39.8219 133.278 39.9609 132.562 39.9522C132.031 39.9969 131.498 39.9224 131 39.7341C130.502 39.5459 130.052 39.2486 129.684 38.8642C129.244 38.3367 129.015 37.6657 129.04 36.9796C129.042 36.6372 129.082 36.2961 129.157 35.9621C129.381 34.7623 130.039 33.6873 131.006 32.9428C131.981 32.2045 133.178 31.8207 134.4 31.8547C135.023 31.7828 135.653 31.8953 136.212 32.1781C136.772 32.4609 137.236 32.9017 137.548 33.4458L136.798 33.8555Z" fill="#6B7280"/>
<path d="M146.16 39.1691C145.796 39.4931 145.37 39.74 144.908 39.8952C144.512 39.9792 144.107 40.0141 143.703 39.9989C143.052 40.0321 142.411 39.8377 141.889 39.4492C141.642 39.2463 141.446 38.9878 141.318 38.6948C141.19 38.4019 141.133 38.0828 141.152 37.7637C141.154 37.512 141.181 37.261 141.234 37.0149C141.399 36.1537 141.869 35.3807 142.556 34.8367C143.249 34.2922 144.11 34.0049 144.991 34.0235C145.644 33.9915 146.289 34.1856 146.816 34.5733C147.063 34.7791 147.258 35.0397 147.386 35.3343C147.514 35.629 147.571 35.9494 147.553 36.2701C147.551 36.5219 147.523 36.7728 147.471 37.019C147.303 37.8693 146.838 38.6324 146.16 39.1722M146.435 35.3522C146.26 35.1027 146.012 34.9127 145.726 34.8077C145.435 34.7393 145.136 34.7117 144.837 34.7257C144.168 34.7018 143.512 34.9208 142.992 35.3423C142.471 35.7638 142.121 36.3593 142.005 37.019C141.96 37.2108 141.936 37.407 141.934 37.604C141.92 37.8448 141.962 38.0856 142.058 38.3071C142.153 38.5286 142.299 38.7248 142.484 38.8798C142.877 39.1765 143.361 39.3256 143.853 39.3009C144.523 39.3164 145.178 39.0962 145.702 38.6785C146.22 38.2606 146.572 37.6725 146.697 37.019C146.742 36.8191 146.766 36.615 146.768 36.4102C146.781 36.0295 146.663 35.6569 146.435 35.3522Z" fill="#6B7280"/>
<path d="M156.001 39.8827L156.129 39.2604C155.52 39.758 154.751 40.0197 153.965 39.9979C153.457 40.0215 152.953 39.8995 152.513 39.6462C152.301 39.5133 152.128 39.3261 152.013 39.1039C151.897 38.8818 151.844 38.6328 151.857 38.3829C151.859 38.202 151.879 38.0217 151.916 37.8446L152.7 34.1584H153.473L152.689 37.8332C152.659 37.9678 152.644 38.1051 152.642 38.2429C152.642 38.9448 153.13 39.2957 154.105 39.2957C154.692 39.3192 155.267 39.1253 155.72 38.7511C156.159 38.3567 156.455 37.8278 156.562 37.2472L157.217 34.1573H157.99L156.774 39.8796L156.001 39.8827Z" fill="#6B7280"/>
<path d="M163.034 37.5532L162.543 39.8703H161.77L162.986 34.148H163.759L163.595 34.9321C164.339 34.2977 165.298 33.9712 166.274 34.0194L166.134 34.7216C164.475 34.7216 163.442 35.6654 163.034 37.5532Z" fill="#6B7280"/>
<path d="M169.634 39.8713L170.879 34.0204H171.651L170.407 39.8713H169.634ZM171.397 33.2602C171.233 33.2602 171.132 33.1626 171.093 32.9677L171.281 32.1254C171.322 32.0457 171.381 31.9772 171.455 31.9262C171.528 31.8751 171.613 31.8431 171.702 31.8329C171.827 31.8329 171.944 31.9187 172.054 32.0902L171.867 33.0029C171.748 33.1433 171.581 33.2349 171.399 33.2602" fill="#6B7280"/>
<path d="M176.304 37.3084C176.281 37.4476 176.27 37.5884 176.269 37.7295C176.269 38.7757 176.889 39.2984 178.13 39.2977C178.624 39.3205 179.114 39.2067 179.548 38.9688C179.981 38.7309 180.341 38.3782 180.587 37.9494H181.382C181.076 38.5879 180.589 39.1223 179.982 39.4863C179.374 39.8503 178.673 40.0278 177.966 39.9968C177.34 40.0338 176.719 39.8608 176.203 39.5052C175.964 39.3122 175.776 39.0647 175.654 38.7836C175.532 38.5025 175.479 38.1961 175.5 37.8903C175.503 37.5986 175.538 37.3082 175.604 37.0242C175.767 36.1695 176.226 35.3995 176.9 34.8494C177.574 34.2993 178.42 34.0043 179.29 34.0163C179.92 33.9866 180.544 34.1589 181.069 34.5079C181.319 34.6914 181.519 34.9339 181.652 35.2138C181.785 35.4936 181.846 35.802 181.83 36.1114C181.828 36.3478 181.801 36.5832 181.749 36.8136L181.655 37.2928L176.304 37.3084ZM179.148 34.7226C178.556 34.7093 177.975 34.8836 177.489 35.2205C177.009 35.5624 176.65 36.0481 176.465 36.6072H180.947C180.962 36.5067 180.97 36.4051 180.971 36.3033C180.983 36.0769 180.942 35.8508 180.85 35.6433C180.759 35.4359 180.619 35.253 180.444 35.1095C180.067 34.8369 179.609 34.7008 179.145 34.7237" fill="#6B7280"/>
<path d="M186.917 37.5532L186.425 39.8703H185.653L186.869 34.148H187.642L187.478 34.9321C188.222 34.2977 189.18 33.9712 190.157 34.0194L190.017 34.7216C188.358 34.7216 187.325 35.6654 186.917 37.5532Z" fill="#6B7280"/>
<path d="M48.6268 11.6167C48.484 11.6134 48.3449 11.6625 48.2357 11.7546C48.133 11.8384 48.0543 11.9479 48.0075 12.072C48.0054 12.0892 47.9997 12.1058 47.991 12.1208C47.9753 12.1573 47.9641 12.1956 47.9578 12.2349C47.9467 12.2895 47.9305 12.3683 47.909 12.4713C47.8876 12.5744 47.8578 12.702 47.8198 12.8541C47.7818 13.0062 47.7355 13.196 47.6808 13.4235C47.6262 13.651 47.5612 13.9169 47.4858 14.2211C47.4679 14.3148 47.4702 14.4113 47.4928 14.504C47.5153 14.5967 47.5575 14.6834 47.6165 14.7584C47.6712 14.8314 47.7426 14.8902 47.8247 14.9299C47.9068 14.9696 47.9973 14.989 48.0885 14.9866H56.0148C56.6932 14.9657 57.3665 15.1094 57.9772 15.4054C58.5879 15.7015 59.1178 16.1411 59.5216 16.6866C59.9498 17.2321 60.2454 17.8697 60.3853 18.5489C60.5251 19.2282 60.5054 19.9307 60.3275 20.601C60.3265 20.6175 60.3238 20.6338 60.3192 20.6497C60.314 20.6715 60.3057 20.7068 60.2943 20.7535C60.2829 20.8001 60.2674 20.8727 60.2456 20.9609C60.2238 21.0491 60.1937 21.1684 60.1554 21.3105C60.117 21.4525 60.0745 21.6278 60.0257 21.8394C59.977 22.051 59.922 22.2979 59.8463 22.58L59.6015 23.556C59.5095 23.9246 59.4093 24.3422 59.3007 24.809C59.0392 25.8398 58.4441 26.7552 57.608 27.4124C56.7734 28.0812 55.7317 28.4381 54.6623 28.4216H38.7318C38.7329 28.4023 38.7357 28.3833 38.7401 28.3645C38.7453 28.3375 38.7567 28.294 38.7722 28.2349C38.7878 28.1757 38.8106 28.0907 38.8376 27.9828L38.9413 27.5596C38.9849 27.3861 39.0336 27.1745 39.0875 26.9249C39.1415 26.6752 39.2106 26.3796 39.295 26.0381C39.3766 25.6965 39.4713 25.3034 39.5792 24.8587C39.687 24.4141 39.8063 23.9152 39.937 23.3621H53.9497C54.093 23.3654 54.2333 23.3207 54.3483 23.2352C54.4633 23.1497 54.5464 23.0283 54.5845 22.8901C54.5854 22.8736 54.5882 22.8572 54.5928 22.8414C54.598 22.8196 54.6063 22.7823 54.6177 22.7273C54.6291 22.6723 54.6478 22.5945 54.6747 22.4908C54.7017 22.3871 54.7339 22.2605 54.7722 22.1081C54.8106 21.9556 54.8562 21.7658 54.9102 21.5386C54.9641 21.3115 55.0243 21.0449 55.0896 20.741C55.1279 20.6557 55.1428 20.5618 55.1328 20.4688C55.1227 20.3758 55.0882 20.2872 55.0326 20.212C54.9812 20.1371 54.9118 20.0761 54.8308 20.0348C54.7499 19.9935 54.6598 19.9731 54.5689 19.9756H46.5824C45.9061 19.9973 45.2343 19.8573 44.6229 19.5672C44.0116 19.2771 43.4783 18.8453 43.0673 18.3077C42.634 17.7618 42.3346 17.122 42.1932 16.4395C42.0518 15.757 42.0723 15.0509 42.2531 14.3777C42.2541 14.3612 42.2569 14.3449 42.2614 14.329C42.2666 14.3072 42.278 14.2688 42.2946 14.2149C42.3112 14.161 42.3299 14.0873 42.3516 13.995C42.3734 13.9027 42.4004 13.7876 42.4325 13.6455C42.4647 13.5034 42.5083 13.3343 42.5632 13.1269C42.6182 12.9194 42.6773 12.6736 42.7416 12.3863C42.806 12.099 42.8858 11.7712 42.9781 11.402C43.0704 11.0327 43.1762 10.6158 43.2955 10.149C44.2172 7.79803 45.7578 6.62252 47.9173 6.62252H63.9318C63.9306 6.64173 63.9279 6.66081 63.9235 6.67957C63.9184 6.70653 63.9069 6.7501 63.8904 6.81026C63.8738 6.87042 63.852 6.95443 63.825 7.0623C63.798 7.17017 63.7597 7.30915 63.7109 7.47718C63.6622 7.64521 63.6072 7.85162 63.5481 8.09951C63.4889 8.3474 63.4153 8.63367 63.3282 8.96973L63.0274 10.1335C62.9133 10.5733 62.7857 11.0697 62.6447 11.6229H48.632L48.6268 11.6167Z" fill="#6B7280"/>
<path d="M65.4711 6.62045H70.821C70.821 6.63202 70.8181 6.64342 70.8127 6.65364C70.8075 6.66505 70.7992 6.68372 70.7888 6.71068C70.7754 6.74447 70.7644 6.77912 70.7557 6.81441L70.7152 6.97725C70.6986 7.04155 70.6768 7.12142 70.6499 7.2127C70.6229 7.30397 70.5959 7.4108 70.569 7.53008C70.542 7.64936 70.5088 7.78212 70.4715 7.92837C70.4341 8.07462 70.3906 8.23953 70.3418 8.43245C70.2931 8.62537 70.2381 8.83074 70.179 9.05478C70.1199 9.27882 70.0566 9.5319 69.9923 9.80365C69.928 10.0754 69.8543 10.371 69.7724 10.6905C69.6904 11.0099 69.6012 11.3553 69.5037 11.7277H73.3414L72.2835 16.5611H68.3939C68.3938 16.5723 68.391 16.5833 68.3856 16.5932C68.3774 16.6142 68.3719 16.6362 68.369 16.6586C68.3635 16.6911 68.3555 16.7319 68.3452 16.781C68.3348 16.8301 68.3213 16.8926 68.3047 16.9687C68.2881 17.0444 68.2695 17.1336 68.2477 17.2373C68.2259 17.3411 68.1958 17.4624 68.1585 17.6035C68.1211 17.7445 68.0796 17.9043 68.0361 18.0837C67.9925 18.2631 67.9438 18.4664 67.8898 18.6936C67.8359 18.9207 67.7757 19.1738 67.7104 19.4507C67.6451 19.7277 67.5724 20.0336 67.4905 20.3707C67.4086 20.7078 67.3194 21.0709 67.2219 21.4608C67.1244 21.8508 67.0144 22.2802 66.8962 22.747C66.8593 23.0126 66.9295 23.282 67.0912 23.4959C67.1723 23.6034 67.2785 23.6893 67.4006 23.7461C67.5227 23.8029 67.6569 23.8288 67.7913 23.8215H70.5741L69.5006 28.4278H65.8424C65.1673 28.4505 64.4971 28.3065 63.891 28.0083C63.2849 27.7101 62.7617 27.2671 62.3677 26.7185C61.9473 26.1579 61.6569 25.5108 61.5175 24.824C61.3781 24.1373 61.3932 23.4282 61.5618 22.748L65.4711 6.62045Z" fill="#6B7280"/>
<path d="M76.424 15.0426C78.4636 13.0038 81.2072 11.8245 84.09 11.7474H88.0615C88.6998 11.7235 89.3348 11.8494 89.9157 12.115C90.4966 12.3807 91.0072 12.7788 91.4065 13.2773C91.8096 13.7541 92.0906 14.3219 92.2253 14.9316C92.3599 15.5413 92.3441 16.1746 92.1792 16.7768C92.0921 17.1018 92.016 17.3839 91.951 17.6232C91.886 17.8624 91.8317 18.0633 91.7882 18.2258C91.7446 18.3883 91.7066 18.5238 91.6741 18.6324C91.6478 18.7152 91.626 18.7993 91.6087 18.8844C91.6027 18.9261 91.5916 18.9668 91.5756 19.0058C91.5668 19.0207 91.5611 19.0373 91.5589 19.0545C91.3259 20.0541 90.7464 20.9389 89.9233 21.5521C89.0964 22.1741 88.0858 22.5026 87.0513 22.4856H82.1359C81.8245 22.4557 81.5297 22.3313 81.2911 22.129C81.0525 21.9267 80.8815 21.6563 80.801 21.354C80.7118 21.0274 80.6939 20.6853 80.7487 20.3512C80.8034 20.017 80.9295 19.6986 81.1184 19.4175C81.3691 19.059 81.6946 18.759 82.0724 18.5384C82.4502 18.3178 82.8714 18.1818 83.3069 18.1397H86.4185C86.4835 17.8797 86.5406 17.6546 86.5897 17.4645C86.6384 17.2747 86.682 17.1149 86.7204 16.9843C86.7588 16.8536 86.7878 16.7457 86.8096 16.6586C86.8314 16.5714 86.8469 16.504 86.8583 16.4511C86.8697 16.3982 86.877 16.3702 86.8832 16.3536C86.8881 16.3407 86.8909 16.327 86.8915 16.3132H83.5351C82.4597 16.2877 81.4048 16.61 80.5272 17.2321C79.5982 17.9754 78.9589 19.0205 78.7204 20.1861C78.5381 21.1014 78.7003 22.0518 79.1757 22.8549C79.4907 23.2938 79.9189 23.6392 80.4146 23.8541C80.9103 24.0691 81.4549 24.1457 81.9907 24.0757H90.307C90.1874 24.5638 90.0761 24.9977 89.9731 25.3774C89.87 25.757 89.7777 26.0906 89.6961 26.3783C89.6145 26.6659 89.5454 26.9183 89.4887 27.1354C89.432 27.3525 89.3832 27.5344 89.3424 27.681C89.2989 27.8276 89.2664 27.9469 89.2449 28.0388C89.2232 28.1311 89.2045 28.2037 89.1879 28.2587C89.1713 28.3137 89.1609 28.351 89.1557 28.3728C89.1511 28.3887 89.1483 28.405 89.1475 28.4216H79.6435C77.3865 28.4216 75.7643 27.8815 74.7769 26.8014C73.8011 25.7515 73.2602 24.3702 73.2636 22.9368C73.2155 21.4731 73.4712 20.0153 74.0146 18.6554C74.558 17.2954 75.3773 16.0628 76.4209 15.0353" fill="#6B7280"/>
<path d="M98.6711 28.3635C95.937 28.071 94.1306 26.8858 93.2517 24.8079C92.3728 22.73 92.6007 20.156 93.9352 17.0859C96.2171 13.2883 99.754 11.5199 104.546 11.7806H112.146L111.901 12.6435H111.917L107.914 28.4299H102.592L98.6711 28.3635ZM105.278 17.9157H105.262L105.701 16.1576H103.151C101.95 16.1235 100.775 16.5122 99.8317 17.256C99.0188 17.9171 98.4189 18.8031 98.1069 19.8034C97.5316 22.4178 98.4374 23.7088 100.824 23.6763H103.787L105.278 17.9157Z" fill="#6B7280"/>
<path d="M128.405 22.5229H123.165L124.646 16.2893H121.358C119.026 16.2672 117.485 17.553 116.736 20.1467C116.528 21.0639 116.682 22.0263 117.168 22.832C117.473 23.2559 117.884 23.5929 118.359 23.8099C118.834 24.0268 119.358 24.1163 119.878 24.0694H128.048L126.907 28.4309H117.614C116.756 28.4937 115.895 28.3787 115.084 28.0931C114.274 27.8075 113.53 27.3575 112.902 26.7714C111.926 25.7119 111.363 24.3377 111.315 22.8984C111.304 19.944 112.439 17.1005 114.48 14.9648C116.436 12.9232 119.116 11.7335 121.942 11.653H125.831L127.166 6.62356H132.406L128.405 22.5229Z" fill="#6B7280"/>
<path d="M133.141 10.233C133.976 7.82465 135.517 6.62045 137.763 6.62045H152.752L151.611 11.5991H142.887V11.6157H138.672C138.537 11.6216 138.408 11.6731 138.306 11.7619C138.179 11.8619 138.086 11.9978 138.037 12.1519L137.386 15.0322H146.174L145.101 20.0108H136.264L134.376 28.4247H129.038L133.141 10.233Z" fill="#6B7280"/>
<path d="M152.858 28.3635C150.124 28.071 148.318 26.8858 147.439 24.8079C146.56 22.73 146.788 20.156 148.122 17.0859C150.404 13.2883 153.941 11.5199 158.733 11.7806H166.334L166.09 12.6435H166.106L162.106 28.4288H156.784L152.858 28.3635ZM159.466 17.9157H159.45L159.889 16.1576H157.335C156.134 16.1235 154.959 16.5122 154.016 17.256C153.203 17.9173 152.603 18.8033 152.291 19.8034C151.715 22.4178 152.621 23.7088 155.008 23.6763H157.97L159.466 17.9157Z" fill="#6B7280"/>
<path d="M184.877 11.7629L186.121 6.62045H191.475C191.476 6.63204 191.473 6.64346 191.467 6.65364C191.462 6.66505 191.454 6.68372 191.443 6.71068C191.43 6.74447 191.419 6.77912 191.41 6.81441L191.37 6.97725C191.353 7.04155 191.331 7.12142 191.304 7.21269C191.277 7.30397 191.249 7.4108 191.222 7.53008C191.195 7.64936 191.163 7.78212 191.125 7.92837C191.087 8.07462 191.043 8.23953 190.994 8.43349C190.945 8.62745 190.89 8.83178 190.831 9.05582C190.772 9.27985 190.709 9.53293 190.645 9.80468C190.58 10.0764 190.507 10.372 190.425 10.6915C190.343 11.011 190.255 11.3563 190.156 11.7287H193.994L192.936 16.5621H189.046C189.046 16.5736 189.043 16.585 189.038 16.5953C189.03 16.6162 189.024 16.6382 189.021 16.6606C189.016 16.6928 189.008 16.7332 188.997 16.782L188.956 16.9697L188.899 17.2384C188.877 17.3421 188.847 17.4641 188.81 17.6045C188.773 17.7449 188.732 17.9049 188.687 18.0847C188.645 18.2638 188.596 18.4671 188.541 18.6946C188.487 18.9221 188.427 19.1745 188.363 19.4518C188.298 19.7284 188.225 20.035 188.143 20.3718C188.061 20.7085 187.972 21.0719 187.874 21.4619C187.776 21.8526 187.668 22.2809 187.549 22.747C187.53 22.8785 187.538 23.0123 187.571 23.1409C187.605 23.2694 187.663 23.39 187.744 23.4959C187.825 23.6034 187.931 23.6893 188.053 23.7461C188.175 23.8029 188.309 23.8288 188.444 23.8215H191.227L190.152 28.4278H186.49C185.815 28.4507 185.144 28.3067 184.538 28.0088C183.932 27.7108 183.409 27.268 183.015 26.7195C182.594 26.1588 182.304 25.5115 182.164 24.8246C182.025 24.1377 182.04 23.4283 182.209 22.748L183.817 16.1099H173.396C172.723 16.0774 172.338 16.3215 172.24 16.8422C172.202 17.0049 172.225 17.1761 172.304 17.3232C172.384 17.4702 172.515 17.5829 172.672 17.6398C173.11 17.7829 173.572 17.8328 174.031 17.786L176.195 17.7207C178.224 17.7864 179.567 18.3589 180.223 19.4383C180.915 20.7675 181.103 22.3023 180.752 23.7593C180.079 26.9926 177.849 28.5484 174.063 28.4268H164.396L165.323 23.9024H173.9C174.811 23.9785 175.359 23.6964 175.544 23.0561C175.565 22.3508 175.039 22.0306 173.965 22.0956H171.557C170.838 22.127 170.121 21.9989 169.457 21.7204C168.794 21.4419 168.2 21.0199 167.719 20.4848C167.262 19.8766 166.95 19.1715 166.807 18.4239C166.665 17.6763 166.696 16.9059 166.898 16.1721C167.866 13.0038 170.302 11.5337 174.205 11.7619H184.873L184.877 11.7629Z" fill="#6B7280"/>
<path d="M126.848 36.2089H38.7307V37.3841H126.848V36.2089Z" fill="#6B7280"/>
<path d="M39.1871 36.2089H38.7307V37.3841H39.1871V36.2089Z" fill="#6B7280"/>
<path d="M39.6435 36.2089H39.1871V37.3841H39.6435V36.2089Z" fill="#6B7280"/>
<path d="M40.1009 36.2089H39.6445V37.3841H40.1009V36.2089Z" fill="#6B7280"/>
<path d="M40.5573 36.2089H40.1009V37.3841H40.5573V36.2089Z" fill="#6B7280"/>
<path d="M41.0136 36.2089H40.5573V37.3841H41.0136V36.2089Z" fill="#6B7280"/>
<path d="M41.47 36.2089H41.0136V37.3841H41.47V36.2089Z" fill="#6B7280"/>
<path d="M41.9264 36.2089H41.47V37.3841H41.9264V36.2089Z" fill="#6B7280"/>
<path d="M42.3838 36.2089H41.9274V37.3841H42.3838V36.2089Z" fill="#6B7280"/>
<path d="M42.8402 36.2089H42.3838V37.3841H42.8402V36.2089Z" fill="#6B7280"/>
<path d="M43.2965 36.2089H42.8402V37.3841H43.2965V36.2089Z" fill="#6B7280"/>
<path d="M43.7529 36.2089H43.2965V37.3841H43.7529V36.2089Z" fill="#6B7280"/>
<path d="M44.2093 36.2089H43.7529V37.3841H44.2093V36.2089Z" fill="#6B7280"/>
<path d="M44.6667 36.2089H44.2103V37.3841H44.6667V36.2089Z" fill="#6B7280"/>
<path d="M45.1231 36.2089H44.6667V37.3841H45.1231V36.2089Z" fill="#6B7280"/>
<path d="M45.5794 36.2089H45.1231V37.3841H45.5794V36.2089Z" fill="#6B7280"/>
<path d="M46.0358 36.2089H45.5794V37.3841H46.0358V36.2089Z" fill="#6B7280"/>
<path d="M46.4922 36.2089H46.0358V37.3841H46.4922V36.2089Z" fill="#6B7280"/>
<path d="M46.9486 36.2089H46.4922V37.3841H46.9486V36.2089Z" fill="#6B7280"/>
<path d="M47.406 36.2089H46.9496V37.3841H47.406V36.2089Z" fill="#6B7280"/>
<path d="M47.8623 36.2089H47.406V37.3841H47.8623V36.2089Z" fill="#6B7280"/>
<path d="M48.3187 36.2089H47.8623V37.3841H48.3187V36.2089Z" fill="#6B7280"/>
<path d="M48.7751 36.2089H48.3187V37.3841H48.7751V36.2089Z" fill="#6B7280"/>
<path d="M49.2315 36.2089H48.7751V37.3841H49.2315V36.2089Z" fill="#6B7280"/>
<path d="M49.6889 36.2089H49.2325V37.3841H49.6889V36.2089Z" fill="#6B7280"/>
<path d="M50.1452 36.2089H49.6889V37.3841H50.1452V36.2089Z" fill="#6B7280"/>
<path d="M50.6016 36.2089H50.1452V37.3841H50.6016V36.2089Z" fill="#6B7280"/>
<path d="M51.058 36.2089H50.6016V37.3841H51.058V36.2089Z" fill="#6B7280"/>
<path d="M51.5144 36.2089H51.058V37.3841H51.5144V36.2089Z" fill="#6B7280"/>
<path d="M51.9718 36.2089H51.5154V37.3841H51.9718V36.2089Z" fill="#6B7280"/>
<path d="M52.4281 36.2089H51.9718V37.3841H52.4281V36.2089Z" fill="#6B7280"/>
<path d="M52.8845 36.2089H52.4281V37.3841H52.8845V36.2089Z" fill="#6B7280"/>
<path d="M53.3409 36.2089H52.8845V37.3841H53.3409V36.2089Z" fill="#6B7280"/>
<path d="M53.7973 36.2089H53.3409V37.3841H53.7973V36.2089Z" fill="#6B7280"/>
<path d="M54.2547 36.2089H53.7983V37.3841H54.2547V36.2089Z" fill="#6B7280"/>
<path d="M54.711 36.2089H54.2547V37.3841H54.711V36.2089Z" fill="#6B7280"/>
<path d="M55.1674 36.2089H54.711V37.3841H55.1674V36.2089Z" fill="#6B7280"/>
<path d="M55.6238 36.2089H55.1674V37.3841H55.6238V36.2089Z" fill="#6B7280"/>
<path d="M56.0802 36.2089H55.6238V37.3841H56.0802V36.2089Z" fill="#6B7280"/>
<path d="M56.5376 36.2089H56.0812V37.3841H56.5376V36.2089Z" fill="#6B7280"/>
<path d="M56.9929 36.2089H56.5365V37.3841H56.9929V36.2089Z" fill="#6B7280"/>
<path d="M57.4503 36.2089H56.9939V37.3841H57.4503V36.2089Z" fill="#6B7280"/>
<path d="M57.9067 36.2089H57.4503V37.3841H57.9067V36.2089Z" fill="#6B7280"/>
<path d="M58.3631 36.2089H57.9067V37.3841H58.3631V36.2089Z" fill="#6B7280"/>
<path d="M58.8194 36.2089H58.3631V37.3841H58.8194V36.2089Z" fill="#6B7280"/>
<path d="M59.2758 36.2089H58.8194V37.3841H59.2758V36.2089Z" fill="#6B7280"/>
<path d="M59.7332 36.2089H59.2768V37.3841H59.7332V36.2089Z" fill="#6B7280"/>
<path d="M60.1896 36.2089H59.7332V37.3841H60.1896V36.2089Z" fill="#6B7280"/>
<path d="M60.646 36.2089H60.1896V37.3841H60.646V36.2089Z" fill="#6B7280"/>
<path d="M61.1023 36.2089H60.646V37.3841H61.1023V36.2089Z" fill="#6B7280"/>
<path d="M61.5587 36.2089H61.1023V37.3841H61.5587V36.2089Z" fill="#6B7280"/>
<path d="M62.0161 36.2089H61.5597V37.3841H62.0161V36.2089Z" fill="#6B7280"/>
<path d="M62.4725 36.2089H62.0161V37.3841H62.4725V36.2089Z" fill="#6B7280"/>
<path d="M62.9289 36.2089H62.4725V37.3841H62.9289V36.2089Z" fill="#6B7280"/>
<path d="M63.3852 36.2089H62.9289V37.3841H63.3852V36.2089Z" fill="#6B7280"/>
<path d="M63.8416 36.2089H63.3852V37.3841H63.8416V36.2089Z" fill="#6B7280"/>
<path d="M64.299 36.2089H63.8426V37.3841H64.299V36.2089Z" fill="#6B7280"/>
<path d="M64.7554 36.2089H64.299V37.3841H64.7554V36.2089Z" fill="#6B7280"/>
<path d="M65.2118 36.2089H64.7554V37.3841H65.2118V36.2089Z" fill="#6B7280"/>
<path d="M65.6681 36.2089H65.2118V37.3841H65.6681V36.2089Z" fill="#6B7280"/>
<path d="M66.1245 36.2089H65.6681V37.3841H66.1245V36.2089Z" fill="#6B7280"/>
<path d="M66.5819 36.2089H66.1255V37.3841H66.5819V36.2089Z" fill="#6B7280"/>
<path d="M67.0383 36.2089H66.5819V37.3841H67.0383V36.2089Z" fill="#6B7280"/>
<path d="M67.4947 36.2089H67.0383V37.3841H67.4947V36.2089Z" fill="#6B7280"/>
<path d="M67.951 36.2089H67.4947V37.3841H67.951V36.2089Z" fill="#6B7280"/>
<path d="M68.4074 36.2089H67.951V37.3841H68.4074V36.2089Z" fill="#6B7280"/>
<path d="M68.8638 36.2089H68.4074V37.3841H68.8638V36.2089Z" fill="#6B7280"/>
<path d="M69.3212 36.2089H68.8648V37.3841H69.3212V36.2089Z" fill="#6B7280"/>
<path d="M69.7775 36.2089H69.3212V37.3841H69.7775V36.2089Z" fill="#6B7280"/>
<path d="M70.2339 36.2089H69.7775V37.3841H70.2339V36.2089Z" fill="#6B7280"/>
<path d="M70.6903 36.2089H70.2339V37.3841H70.6903V36.2089Z" fill="#6B7280"/>
<path d="M71.1467 36.2089H70.6903V37.3841H71.1467V36.2089Z" fill="#6B7280"/>
<path d="M71.6041 36.2089H71.1477V37.3841H71.6041V36.2089Z" fill="#6B7280"/>
<path d="M72.0605 36.2089H71.6041V37.3841H72.0605V36.2089Z" fill="#6B7280"/>
<path d="M72.5168 36.2089H72.0605V37.3841H72.5168V36.2089Z" fill="#6B7280"/>
<path d="M72.9732 36.2089H72.5168V37.3841H72.9732V36.2089Z" fill="#6B7280"/>
<path d="M73.4306 36.2089H72.9742V37.3841H73.4306V36.2089Z" fill="#6B7280"/>
<path d="M73.8859 36.2089H73.4296V37.3841H73.8859V36.2089Z" fill="#6B7280"/>
<path d="M74.3434 36.2089H73.887V37.3841H74.3434V36.2089Z" fill="#6B7280"/>
<path d="M74.7997 36.2089H74.3434V37.3841H74.7997V36.2089Z" fill="#6B7280"/>
<path d="M75.2561 36.2089H74.7997V37.3841H75.2561V36.2089Z" fill="#6B7280"/>
<path d="M75.7125 36.2089H75.2561V37.3841H75.7125V36.2089Z" fill="#6B7280"/>
<path d="M76.1699 36.2089H75.7135V37.3841H76.1699V36.2089Z" fill="#6B7280"/>
<path d="M76.6263 36.2089H76.1699V37.3841H76.6263V36.2089Z" fill="#6B7280"/>
<path d="M77.0826 36.2089H76.6263V37.3841H77.0826V36.2089Z" fill="#6B7280"/>
<path d="M77.539 36.2089H77.0826V37.3841H77.539V36.2089Z" fill="#6B7280"/>
<path d="M77.9954 36.2089H77.539V37.3841H77.9954V36.2089Z" fill="#6B7280"/>
<path d="M78.4528 36.2089H77.9964V37.3841H78.4528V36.2089Z" fill="#6B7280"/>
<path d="M78.9081 36.2089H78.4517V37.3841H78.9081V36.2089Z" fill="#6B7280"/>
<path d="M79.3655 36.2089H78.9091V37.3841H79.3655V36.2089Z" fill="#6B7280"/>
<path d="M79.8219 36.2089H79.3655V37.3841H79.8219V36.2089Z" fill="#6B7280"/>
<path d="M80.2783 36.2089H79.8219V37.3841H80.2783V36.2089Z" fill="#6B7280"/>
<path d="M80.7346 36.2089H80.2783V37.3841H80.7346V36.2089Z" fill="#6B7280"/>
<path d="M81.191 36.2089H80.7346V37.3841H81.191V36.2089Z" fill="#6B7280"/>
<path d="M81.6484 36.2089H81.1921V37.3841H81.6484V36.2089Z" fill="#6B7280"/>
<path d="M82.1048 36.2089H81.6484V37.3841H82.1048V36.2089Z" fill="#6B7280"/>
<path d="M82.5612 36.2089H82.1048V37.3841H82.5612V36.2089Z" fill="#6B7280"/>
<path d="M83.0175 36.2089H82.5612V37.3841H83.0175V36.2089Z" fill="#6B7280"/>
<path d="M83.4739 36.2089H83.0175V37.3841H83.4739V36.2089Z" fill="#6B7280"/>
<path d="M83.9313 36.2089H83.475V37.3841H83.9313V36.2089Z" fill="#6B7280"/>
<path d="M84.3877 36.2089H83.9313V37.3841H84.3877V36.2089Z" fill="#6B7280"/>
<path d="M84.8441 36.2089H84.3877V37.3841H84.8441V36.2089Z" fill="#6B7280"/>
<path d="M85.3004 36.2089H84.8441V37.3841H85.3004V36.2089Z" fill="#6B7280"/>
<path d="M85.7568 36.2089H85.3004V37.3841H85.7568V36.2089Z" fill="#6B7280"/>
<path d="M86.2142 36.2089H85.7578V37.3841H86.2142V36.2089Z" fill="#6B7280"/>
<path d="M86.6706 36.2089H86.2142V37.3841H86.6706V36.2089Z" fill="#6B7280"/>
<path d="M87.127 36.2089H86.6706V37.3841H87.127V36.2089Z" fill="#6B7280"/>
<path d="M87.5833 36.2089H87.127V37.3841H87.5833V36.2089Z" fill="#6B7280"/>
<path d="M88.0397 36.2089H87.5833V37.3841H88.0397V36.2089Z" fill="#6B7280"/>
<path d="M88.4961 36.2089H88.0397V37.3841H88.4961V36.2089Z" fill="#6B7280"/>
<path d="M88.9535 36.2089H88.4971V37.3841H88.9535V36.2089Z" fill="#6B7280"/>
<path d="M89.4099 36.2089H88.9535V37.3841H89.4099V36.2089Z" fill="#6B7280"/>
<path d="M89.8662 36.2089H89.4099V37.3841H89.8662V36.2089Z" fill="#6B7280"/>
<path d="M90.3226 36.2089H89.8662V37.3841H90.3226V36.2089Z" fill="#6B7280"/>
<path d="M90.779 36.2089H90.3226V37.3841H90.779V36.2089Z" fill="#6B7280"/>
<path d="M91.2364 36.2089H90.78V37.3841H91.2364V36.2089Z" fill="#6B7280"/>
<path d="M91.6928 36.2089H91.2364V37.3841H91.6928V36.2089Z" fill="#6B7280"/>
<path d="M92.1491 36.2089H91.6928V37.3841H92.1491V36.2089Z" fill="#6B7280"/>
<path d="M92.6055 36.2089H92.1491V37.3841H92.6055V36.2089Z" fill="#6B7280"/>
<path d="M93.0629 36.2089H92.6065V37.3841H93.0629V36.2089Z" fill="#6B7280"/>
<path d="M93.5193 36.2089H93.0629V37.3841H93.5193V36.2089Z" fill="#6B7280"/>
<path d="M93.9757 36.2089H93.5193V37.3841H93.9757V36.2089Z" fill="#6B7280"/>
<path d="M94.432 36.2089H93.9757V37.3841H94.432V36.2089Z" fill="#6B7280"/>
<path d="M94.8884 36.2089H94.432V37.3841H94.8884V36.2089Z" fill="#6B7280"/>
<path d="M95.3458 36.2089H94.8895V37.3841H95.3458V36.2089Z" fill="#6B7280"/>
<path d="M95.8022 36.2089H95.3458V37.3841H95.8022V36.2089Z" fill="#6B7280"/>
<path d="M96.2586 36.2089H95.8022V37.3841H96.2586V36.2089Z" fill="#6B7280"/>
<path d="M96.7149 36.2089H96.2586V37.3841H96.7149V36.2089Z" fill="#6B7280"/>
<path d="M97.1713 36.2089H96.7149V37.3841H97.1713V36.2089Z" fill="#6B7280"/>
<path d="M97.6277 36.2089H97.1713V37.3841H97.6277V36.2089Z" fill="#6B7280"/>
<path d="M98.0851 36.2089H97.6287V37.3841H98.0851V36.2089Z" fill="#6B7280"/>
<path d="M98.5404 36.2089H98.0841V37.3841H98.5404V36.2089Z" fill="#6B7280"/>
<path d="M98.9978 36.2089H98.5415V37.3841H98.9978V36.2089Z" fill="#6B7280"/>
<path d="M99.4542 36.2089H98.9978V37.3841H99.4542V36.2089Z" fill="#6B7280"/>
<path d="M99.9106 36.2089H99.4542V37.3841H99.9106V36.2089Z" fill="#6B7280"/>
<path d="M100.367 36.2089H99.9106V37.3841H100.367V36.2089Z" fill="#6B7280"/>
<path d="M100.823 36.2089H100.367V37.3841H100.823V36.2089Z" fill="#6B7280"/>
<path d="M101.281 36.2089H100.824V37.3841H101.281V36.2089Z" fill="#6B7280"/>
<path d="M101.737 36.2089H101.281V37.3841H101.737V36.2089Z" fill="#6B7280"/>
<path d="M102.193 36.2089H101.737V37.3841H102.193V36.2089Z" fill="#6B7280"/>
<path d="M102.65 36.2089H102.193V37.3841H102.65V36.2089Z" fill="#6B7280"/>
<path d="M103.106 36.2089H102.65V37.3841H103.106V36.2089Z" fill="#6B7280"/>
<path d="M103.564 36.2089H103.107V37.3841H103.564V36.2089Z" fill="#6B7280"/>
<path d="M104.02 36.2089H103.564V37.3841H104.02V36.2089Z" fill="#6B7280"/>
<path d="M104.476 36.2089H104.02V37.3841H104.476V36.2089Z" fill="#6B7280"/>
<path d="M104.933 36.2089H104.476V37.3841H104.933V36.2089Z" fill="#6B7280"/>
<path d="M105.389 36.2089H104.933V37.3841H105.389V36.2089Z" fill="#6B7280"/>
<path d="M105.847 36.2089H105.39V37.3841H105.847V36.2089Z" fill="#6B7280"/>
<path d="M106.303 36.2089H105.847V37.3841H106.303V36.2089Z" fill="#6B7280"/>
<path d="M106.759 36.2089H106.303V37.3841H106.759V36.2089Z" fill="#6B7280"/>
<path d="M107.216 36.2089H106.759V37.3841H107.216V36.2089Z" fill="#6B7280"/>
<path d="M107.672 36.2089H107.216V37.3841H107.672V36.2089Z" fill="#6B7280"/>
<path d="M108.129 36.2089H107.673V37.3841H108.129V36.2089Z" fill="#6B7280"/>
<path d="M108.586 36.2089H108.129V37.3841H108.586V36.2089Z" fill="#6B7280"/>
<path d="M109.042 36.2089H108.586V37.3841H109.042V36.2089Z" fill="#6B7280"/>
<path d="M109.499 36.2089H109.042V37.3841H109.499V36.2089Z" fill="#6B7280"/>
<path d="M109.955 36.2089H109.499V37.3841H109.955V36.2089Z" fill="#6B7280"/>
<path d="M110.412 36.2089H109.956V37.3841H110.412V36.2089Z" fill="#6B7280"/>
<path d="M110.869 36.2089H110.412V37.3841H110.869V36.2089Z" fill="#6B7280"/>
<path d="M111.325 36.2089H110.869V37.3841H111.325V36.2089Z" fill="#6B7280"/>
<path d="M111.781 36.2089H111.325V37.3841H111.781V36.2089Z" fill="#6B7280"/>
<path d="M112.238 36.2089H111.781V37.3841H112.238V36.2089Z" fill="#6B7280"/>
<path d="M112.694 36.2089H112.238V37.3841H112.694V36.2089Z" fill="#6B7280"/>
<path d="M113.152 36.2089H112.695V37.3841H113.152V36.2089Z" fill="#6B7280"/>
<path d="M113.608 36.2089H113.152V37.3841H113.608V36.2089Z" fill="#6B7280"/>
<path d="M114.064 36.2089H113.608V37.3841H114.064V36.2089Z" fill="#6B7280"/>
<path d="M114.521 36.2089H114.064V37.3841H114.521V36.2089Z" fill="#6B7280"/>
<path d="M114.978 36.2089H114.522V37.3841H114.978V36.2089Z" fill="#6B7280"/>
<path d="M115.435 36.2089H114.978V37.3841H115.435V36.2089Z" fill="#6B7280"/>
<path d="M115.891 36.2089H115.435V37.3841H115.891V36.2089Z" fill="#6B7280"/>
<path d="M116.347 36.2089H115.891V37.3841H116.347V36.2089Z" fill="#6B7280"/>
<path d="M116.804 36.2089H116.347V37.3841H116.804V36.2089Z" fill="#6B7280"/>
<path d="M117.26 36.2089H116.804V37.3841H117.26V36.2089Z" fill="#6B7280"/>
<path d="M117.717 36.2089H117.261V37.3841H117.717V36.2089Z" fill="#6B7280"/>
<path d="M118.174 36.2089H117.717V37.3841H118.174V36.2089Z" fill="#6B7280"/>
<path d="M118.63 36.2089H118.174V37.3841H118.63V36.2089Z" fill="#6B7280"/>
<path d="M119.087 36.2089H118.63V37.3841H119.087V36.2089Z" fill="#6B7280"/>
<path d="M119.543 36.2089H119.087V37.3841H119.543V36.2089Z" fill="#6B7280"/>
<path d="M120 36.2089H119.544V37.3841H120V36.2089Z" fill="#6B7280"/>
<path d="M120.456 36.2089H119.999V37.3841H120.456V36.2089Z" fill="#6B7280"/>
<path d="M120.913 36.2089H120.457V37.3841H120.913V36.2089Z" fill="#6B7280"/>
<path d="M121.369 36.2089H120.913V37.3841H121.369V36.2089Z" fill="#6B7280"/>
<path d="M121.826 36.2089H121.369V37.3841H121.826V36.2089Z" fill="#6B7280"/>
<path d="M122.282 36.2089H121.826V37.3841H122.282V36.2089Z" fill="#6B7280"/>
<path d="M122.739 36.2089H122.282V37.3841H122.739V36.2089Z" fill="#6B7280"/>
<path d="M123.196 36.2089H122.74V37.3841H123.196V36.2089Z" fill="#6B7280"/>
<path d="M123.652 36.2089H123.196V37.3841H123.652V36.2089Z" fill="#6B7280"/>
<path d="M124.109 36.2089H123.652V37.3841H124.109V36.2089Z" fill="#6B7280"/>
<path d="M124.565 36.2089H124.109V37.3841H124.565V36.2089Z" fill="#6B7280"/>
<path d="M125.021 36.2089H124.565V37.3841H125.021V36.2089Z" fill="#6B7280"/>
<path d="M125.479 36.2089H125.022V37.3841H125.479V36.2089Z" fill="#6B7280"/>
<path d="M125.935 36.2089H125.479V37.3841H125.935V36.2089Z" fill="#6B7280"/>
<path d="M126.392 36.2089H125.935V37.3841H126.392V36.2089Z" fill="#6B7280"/>
<path d="M126.848 36.2089H126.392V37.3841H126.848V36.2089Z" fill="#6B7280"/>
</g>
</g>
<defs>
<clipPath id="clip0_290_78">
<rect width="193.069" height="40" fill="white" transform="translate(0.965332)"/>
</clipPath>
<clipPath id="clip1_290_78">
<rect width="193.069" height="40" fill="white" transform="translate(0.930664)"/>
</clipPath>
</defs>
</svg>
