<svg width="64" height="64" viewBox="0 0 64 64" fill="none" xmlns="http://www.w3.org/2000/svg">
<g clip-path="url(#clip0_153_26)">
<path d="M54.55 32.6L54.58 32.23H56.81C60.33 32.23 63.2 29.36 63.2 25.83V20.25H58.37C56.56 20.25 54.82 21.03 53.6 22.39L53.18 22.87L52.93 22.27C52.55 21.33 52.11 20.41 51.61 19.53L51.46 19.27L53.27 17.46C55.76 14.96 55.76 10.91 53.27 8.41L49.85 5L46.43 8.41C45.23 9.62 44.56 11.23 44.56 12.94C44.56 14.65 45.23 16.25 46.43 17.46L46.79 17.81C49.93 21.47 51.65 26.11 51.65 30.91C51.65 34.45 50.72 37.94 48.95 40.98C47.3 43.83 44.88 46.28 41.97 48.05V53.3C41.97 56.82 44.83 59.69 48.33 59.69H53.92V54.86C53.92 51.34 51.06 48.48 47.54 48.47H46.53L47.27 47.77C48.65 46.49 49.86 45.05 50.89 43.48L51.33 42.8L51.6 43.56C52.51 46.1 54.93 47.8 57.62 47.8H63.2V42.97C63.2 39.44 60.33 36.57 56.81 36.57H53.91L54.03 36.08C54.29 34.95 54.46 33.77 54.55 32.6ZM54.94 26.64C54.94 24.75 56.48 23.21 58.37 23.21H60.24V25.83C60.24 27.73 58.7 29.27 56.81 29.27H54.94V26.64ZM49.85 16.69L48.53 15.36C47.88 14.72 47.52 13.85 47.52 12.94C47.52 12.03 47.88 11.15 48.53 10.51L49.85 9.18L51.17 10.51C51.82 11.15 52.18 12.02 52.18 12.94C52.18 13.86 51.82 14.72 51.17 15.36L49.85 16.69ZM47.52 51.43C49.42 51.43 50.96 52.97 50.96 54.86V56.73H48.33C46.44 56.73 44.9 55.19 44.9 53.3V51.43H47.52ZM54.18 39.53H56.81C58.7 39.53 60.24 41.07 60.24 42.97V44.84H57.62C55.72 44.84 54.18 43.3 54.18 41.41V39.53Z" fill="#111827"/>
<path d="M14.3 41.15L14.2 40.98H14.19L14.1 40.81C13.25 39.3 12.59 37.7 12.15 36.04C11.71 34.37 11.49 32.65 11.49 30.91C11.49 26.29 13.1 21.78 16.03 18.21L16.77 17.46C17.98 16.25 18.64 14.65 18.64 12.93C18.64 11.21 17.98 9.62 16.77 8.41L13.36 5L9.94 8.41C7.45 10.91 7.45 14.96 9.94 17.46L11.71 19.23L11.56 19.49C11.06 20.37 10.62 21.29 10.23 22.23L9.99 22.82L9.57 22.34C8.36 21.01 6.63 20.25 4.84 20.25H0V25.83C0 29.36 2.87 32.23 6.4 32.23H8.57L8.6 32.6C8.68 33.77 8.86 34.94 9.12 36.08L9.24 36.57H6.4C2.87 36.57 0 39.44 0 42.97V47.8H5.59C8.25 47.8 10.67 46.12 11.59 43.61L11.86 42.87L12.3 43.53C13.32 45.08 14.52 46.51 15.88 47.77L16.62 48.46H15.61C12.09 48.48 9.23 51.34 9.23 54.86V59.69H14.81C18.32 59.69 21.16 56.82 21.16 53.3V48.06C18.33 46.32 15.96 43.94 14.3 41.15ZM11.03 12.94C11.03 12.02 11.38 11.15 12.03 10.51L13.36 9.18L14.68 10.51C15.33 11.15 15.69 12.02 15.69 12.94C15.69 13.86 15.33 14.72 14.68 15.36L13.36 16.69L12.03 15.36C11.38 14.72 11.03 13.85 11.03 12.94ZM8.27 29.27H6.4C4.5 29.27 2.96 27.73 2.96 25.83V23.21H4.84C6.73 23.21 8.27 24.75 8.27 26.64V29.27ZM9 41.81C8.8 43.52 7.34 44.84 5.59 44.84H2.96V42.97C2.96 41.07 4.5 39.53 6.4 39.53H9.02L9 41.81ZM18.25 53.3C18.25 55.19 16.71 56.73 14.81 56.73H12.19V54.86C12.19 52.97 13.73 51.43 15.62 51.43H18.25V53.3Z" fill="#111827"/>
<path d="M38.23 28.2999L29.51 37.0099L24.77 32.26L26.86 30.17L29.51 32.82L36.13 26.2L38.23 28.2999Z" fill="#111827"/>
<path d="M31.5701 15.98C23.4301 15.98 16.8101 22.61 16.8101 30.75C16.8101 38.89 23.4301 45.51 31.5701 45.51C39.7101 45.51 46.3401 38.89 46.3401 30.75C46.3401 22.61 39.7201 15.98 31.5701 15.98ZM31.5701 42.55C25.0601 42.55 19.7701 37.26 19.7701 30.75C19.7701 24.24 25.0601 18.94 31.5701 18.94C38.0801 18.94 43.3801 24.24 43.3801 30.75C43.3801 37.26 38.0801 42.55 31.5701 42.55Z" fill="#111827"/>
</g>
<defs>
<clipPath id="clip0_153_26">
<rect width="63.2" height="54.69" fill="white" transform="translate(0 5)"/>
</clipPath>
</defs>
</svg>
