<svg width="154" height="40" viewBox="0 0 154 40" fill="none" xmlns="http://www.w3.org/2000/svg">
<g clip-path="url(#clip0_290_64)">
<mask id="mask0_290_64" style="mask-type:luminance" maskUnits="userSpaceOnUse" x="0" y="0" width="154" height="40">
<path d="M153.8 0.799805H0.200012V39.1998H153.8V0.799805Z" fill="white"/>
</mask>
<g mask="url(#mask0_290_64)">
<path d="M114.879 20.3539C114.879 8.00704 101.345 4.83497 96.823 11.2722V8.83265H89.9531V34.4761C89.9888 35.7403 90.519 36.9409 91.4309 37.823C92.3427 38.7049 93.5646 39.199 94.8371 39.2001H96.9355V29.7956C102.55 35.3513 114.879 31.9124 114.879 20.3539ZM107.852 20.2049C107.845 21.6918 107.267 23.1196 106.236 24.1972C105.206 25.2747 103.8 25.9206 102.307 26.0028C94.9557 26.0028 94.6997 14.4195 102.244 14.4195C103.752 14.4848 105.176 15.1239 106.222 16.2043C107.269 17.2847 107.857 18.7239 107.865 20.2235L107.852 20.2049Z" fill="#6B7280"/>
<path d="M123.89 32.0251H117.183V14.0232C117.168 13.3956 117.279 12.7713 117.509 12.1868C117.74 11.6024 118.085 11.0695 118.525 10.6192C118.966 10.169 119.492 9.81051 120.073 9.56467C120.654 9.31884 121.279 9.19062 121.91 9.1875H123.859L123.89 32.0251Z" fill="#6B7280"/>
<path fill-rule="evenodd" clip-rule="evenodd" d="M120.544 7.9323C115.809 7.9323 115.803 0.799805 120.544 0.799805C125.284 0.799805 125.29 7.9323 120.544 7.9323Z" fill="#6B7280"/>
<path d="M135.601 11.6868H135.52C135.52 8.52092 131.841 9.25342 128.65 9.25342V32.0352C131.816 32.0352 135.395 32.7304 135.52 29.7198V19.3779H135.595C135.957 16.7336 137.824 14.356 141.216 14.356C145.025 14.356 146.905 17.3171 146.924 20.3028V31.8862C150.64 30.3219 153.794 26.7339 153.794 20.6257C153.8 8.73198 140.241 5.04468 135.601 11.6868Z" fill="#6B7280"/>
<path d="M7.13868 8.49561H0.200012C0.200012 6.08087 0.200012 6.13674 0.200012 6.13674C0.202468 5.52617 0.325896 4.92204 0.563251 4.35887C0.800604 3.7957 1.14724 3.28454 1.58335 2.85452C2.01947 2.4245 2.53652 2.08407 3.10502 1.85268C3.6735 1.62129 4.28227 1.50345 4.89657 1.5059H21.6467V8.38388H14.9455V32.0223H12.0226C10.7326 32.0158 9.49739 31.5036 8.58523 30.5969C7.67308 29.6903 7.15774 28.4625 7.15117 27.1804L7.13868 8.49561Z" fill="#6B7280"/>
<path d="M55.0406 17.8692C46.6906 15.5103 55.609 11.5126 55.609 15.5972L62.3166 15.6469C61.336 5.3361 44.6546 6.70176 44.6546 16.0008C44.6546 23.096 56.1773 21.9289 56.1773 25.5852C56.1773 27.764 51.412 28.211 51.2122 25.132H44.4109C45.5038 35.7283 63.0474 34.8716 63.0474 25.0017C63.0474 20.0852 58.9066 18.9369 55.0406 17.8692Z" fill="#6B7280"/>
<path d="M35.7117 11.6755H35.6242C30.9839 5.03337 17.4312 8.71445 17.4312 20.6143C17.4312 34.0351 32.6576 35.3326 35.6242 29.5905H35.7991C35.7991 32.7439 39.4402 32.0239 42.669 32.0239L42.5879 9.23588C39.3903 9.23588 35.7117 8.5034 35.7117 11.6755ZM30.0907 26.4122C22.5962 26.3004 22.4527 14.3385 30.1344 14.3385C37.8163 14.3385 37.6727 26.4122 30.0595 26.4122H30.0907Z" fill="#6B7280"/>
<path d="M80.729 20.9066C84.4762 17.8463 85.263 8.81421 85.263 8.81421H77.9059C77.4064 13.0105 76.9192 14.7238 75.8512 16.0212C75.3128 16.6151 74.6474 17.0816 73.9038 17.3868C73.1603 17.6919 72.3576 17.8276 71.5544 17.7842V5.49315C71.3693 4.37813 70.7797 3.36907 69.8971 2.65656C69.0146 1.94403 67.9002 1.57738 66.7642 1.62584H64.7531V32.0429H71.5544V24.4325C72.4386 24.4514 73.3216 24.3616 74.1837 24.1655L78.8178 32.0987H87.5614L80.729 20.9066Z" fill="#6B7280"/>
</g>
</g>
<defs>
<clipPath id="clip0_290_64">
<rect width="153.6" height="40" fill="white" transform="translate(0.200012)"/>
</clipPath>
</defs>
</svg>
