<svg width="170" height="47" viewBox="0 0 170 47" fill="none" xmlns="http://www.w3.org/2000/svg">
<g clip-path="url(#clip0_330_1134)">
<path d="M109.436 12.3815C106.182 11.0129 102.9 10.3874 99.4155 11.6693C99.9415 10.984 100.435 10.2688 101 9.61637C105.008 5.00144 110.013 2.14761 116.079 1.24016C117.401 1.04194 118.75 0.994128 120.089 0.941334C120.604 0.921412 121.025 0.8736 121.279 0.370569C121.336 0.259006 121.446 0.175333 121.603 -0.000976562C121.903 1.13358 122.82 0.963249 123.615 1.07182C128.102 1.68243 132.208 3.31703 136.019 5.7256C138.839 7.50763 141.34 9.67016 143.613 12.1036C143.657 12.1505 143.693 12.2042 143.816 12.3596C140.478 10.9213 137.293 11.0886 134.155 12.6694C132.259 8.82547 129.389 5.88797 125.868 3.54414C126.851 4.41972 127.883 5.24648 128.803 6.18281C129.73 7.12612 130.603 8.13418 131.392 9.19403C132.184 10.2569 132.842 11.4193 133.509 12.5778C129.532 11.9074 125.646 11.8616 121.786 13.0898C121.651 9.30459 121.518 5.55926 121.385 1.81292C121.341 1.81392 121.297 1.81491 121.253 1.81591V13.0958C117.562 12.267 113.907 11.6315 110.035 12.4025C110.261 11.748 110.414 11.1653 110.658 10.6224C111.755 8.17402 113.525 6.25453 115.599 4.61595C116.817 3.65372 118.144 2.82695 119.423 1.94042C119.555 1.84878 119.696 1.77109 119.786 1.63661C115.094 3.9894 111.057 6.9797 109.437 12.3806L109.436 12.3815Z" fill="#6B7280"/>
<path d="M89.084 32.6641H85.2052C85.4751 26.5869 85.7451 20.5246 86.017 14.4165H89.858C89.7116 16.6428 89.5661 18.8521 89.4147 21.1621C89.5582 21.0575 89.6309 21.0276 89.6667 20.9738C90.5911 19.5873 91.9488 18.9448 93.5505 18.7665C94.7588 18.633 95.9671 18.6629 97.1484 19.0125C99.0141 19.5634 100.022 20.8244 100.013 22.7638C100.006 24.3357 99.8857 25.9075 99.815 27.4794C99.7443 29.0681 99.6746 30.6559 99.6018 32.2447C99.5959 32.3742 99.5749 32.5037 99.56 32.6501C99.4235 32.6601 99.311 32.676 99.1984 32.676C98.0081 32.678 96.8187 32.677 95.6055 32.677C95.7111 31.3592 95.8406 30.0951 95.9073 28.8281C95.993 27.1925 96.0996 25.5529 96.0627 23.9183C96.0348 22.6792 95.3883 22.0048 94.1741 21.7697C92.924 21.5267 91.7257 21.6811 90.7226 22.5706C89.9616 23.2459 89.6299 24.1614 89.4994 25.1146C89.3012 26.555 89.1806 28.0083 89.096 29.4606C89.0342 30.5125 89.084 31.5713 89.084 32.6651V32.6641Z" fill="#6B7280"/>
<path d="M111.768 25.816C110.451 26.2414 109.159 26.6259 107.892 27.0841C107.327 27.2893 106.779 27.5921 106.29 27.9437C105.748 28.3342 105.584 28.9428 105.752 29.5893C105.921 30.2427 106.397 30.6132 107.041 30.7647C108.093 31.0127 109.114 30.8254 110.19 30.4828C109.981 31.2318 109.791 31.9391 109.579 32.6383C109.555 32.718 109.412 32.7967 109.314 32.8116C107.799 33.0447 106.286 33.1423 104.776 32.7569C103.365 32.3963 102.53 31.4789 102.177 30.1012C101.826 28.7326 102.175 27.5552 103.188 26.5661C104.111 25.6646 105.284 25.2532 106.483 24.9175C107.676 24.5829 108.891 24.3229 110.087 23.9971C110.447 23.8995 110.805 23.7322 111.115 23.524C111.587 23.2042 111.81 22.7341 111.705 22.1464C111.606 21.5965 111.243 21.2021 110.738 21.1304C109.847 21.0049 108.917 20.8754 108.038 20.9969C106.657 21.1881 105.306 21.5876 103.931 21.9013C104.031 21.216 104.131 20.45 104.265 19.69C104.283 19.5904 104.455 19.4699 104.574 19.443C106.974 18.8911 109.394 18.5286 111.864 18.8433C112.321 18.9021 112.777 19.0057 113.218 19.1441C114.935 19.686 115.671 20.715 115.601 22.5149C115.541 24.0868 115.427 25.6566 115.355 27.2275C115.28 28.882 115.228 30.5375 115.164 32.1921C115.158 32.3365 115.143 32.4809 115.131 32.6483H111.351C111.493 30.3274 111.635 28.0363 111.771 25.815L111.768 25.816Z" fill="#6B7280"/>
<path d="M133.149 30.4915C132.948 31.2087 132.784 31.8492 132.582 32.4768C132.537 32.6142 132.371 32.7905 132.239 32.8114C130.725 33.0525 129.209 33.1471 127.702 32.7497C126.255 32.3682 125.426 31.4059 125.113 29.9726C124.812 28.591 125.196 27.4245 126.243 26.4753C127.366 25.4572 128.782 25.0887 130.191 24.7122C131.133 24.4601 132.089 24.2579 133.03 24.0039C133.361 23.9143 133.69 23.7748 133.98 23.5935C134.477 23.2837 134.764 22.8235 134.68 22.2159C134.6 21.6282 134.219 21.2019 133.667 21.1222C132.792 20.9967 131.876 20.8672 131.016 20.9957C129.733 21.186 128.483 21.5993 127.22 21.9181C127.114 21.945 127.009 21.9749 126.861 22.0157C126.984 21.2228 127.092 20.4747 127.228 19.7307C127.247 19.6221 127.384 19.4747 127.492 19.4498C129.941 18.8909 132.411 18.5035 134.927 18.8601C135.589 18.9537 136.252 19.1669 136.865 19.4388C138.004 19.9448 138.582 20.8821 138.554 22.1253C138.52 23.5816 138.418 25.0359 138.353 26.4912C138.271 28.327 138.199 30.1638 138.121 32.0006C138.112 32.2108 138.097 32.421 138.083 32.6531H134.308C134.449 30.3381 134.59 28.0481 134.727 25.8099C133.501 26.2073 132.299 26.5749 131.112 26.9902C130.555 27.1855 129.98 27.4036 129.508 27.7423C129.16 27.9913 128.84 28.4196 128.727 28.828C128.47 29.7564 129.052 30.5503 130.021 30.7694C130.901 30.9687 131.766 30.8671 132.624 30.6399C132.78 30.5991 132.934 30.5523 133.149 30.4905V30.4915Z" fill="#6B7280"/>
<path d="M59.5137 29.6387C59.3613 30.5601 59.2309 31.4048 59.0735 32.2445C59.0525 32.3571 58.9111 32.5105 58.8015 32.5334C56.382 33.0414 53.9475 33.2665 51.5101 32.6818C48.9541 32.0682 47.2856 30.082 46.9748 27.4503C46.7955 25.9372 46.9539 24.4779 47.4838 23.0585C48.3793 20.6589 50.1185 19.2663 52.6357 18.854C54.0402 18.6239 55.4427 18.6747 56.8253 19.0402C59.0366 19.6239 60.6005 21.5464 60.7031 23.8345C60.732 24.471 60.7071 25.1095 60.7071 25.7898H50.7849C50.3078 28.296 51.9055 30.3251 54.4167 30.4794C55.9477 30.5731 57.413 30.2573 58.8653 29.83C59.0545 29.7742 59.2438 29.7184 59.5137 29.6387ZM50.8815 24.1761H57.0982C57.1898 22.5057 56.5015 21.4289 55.1598 21.1012C53.0491 20.5862 51.1873 21.917 50.8815 24.1761Z" fill="#6B7280"/>
<path d="M6.28414 15.8149V19.1509H9.64597C9.60613 20.0494 9.56828 20.8851 9.52843 21.7846H6.12277C6.07296 22.6691 6.01718 23.4929 5.98331 24.3177C5.92952 25.5917 5.86378 26.8657 5.85183 28.1397C5.83589 29.8869 6.61783 30.4925 8.35104 30.1279C8.69071 30.0562 9.0274 29.9745 9.44974 29.8789C9.33619 30.5343 9.2316 31.1549 9.12003 31.7745C8.96663 32.6221 8.96663 32.6341 8.11696 32.7975C6.88877 33.0335 5.6546 33.1222 4.41645 32.8702C2.82269 32.5454 1.98297 31.5991 2.0009 29.9606C2.01883 28.307 2.14833 26.6535 2.233 25.001C2.28579 23.9611 2.34655 22.9211 2.40731 21.8204H0.479858C0.524683 20.912 0.565523 20.0663 0.610348 19.1618C1.15322 19.1618 1.66422 19.1399 2.17223 19.1688C2.54179 19.1907 2.67128 19.0563 2.68024 18.6967C2.69817 18.0024 2.74898 17.3091 2.78982 16.556C3.94031 16.312 5.0938 16.068 6.28513 15.8159L6.28414 15.8149Z" fill="#6B7280"/>
<path d="M71.1552 29.9495C71.0067 30.7524 70.8683 31.5632 70.6979 32.3671C70.673 32.4866 70.5147 32.637 70.3921 32.6669C68.896 33.0335 67.3849 33.165 65.8659 32.8263C64.5221 32.5275 63.6944 31.5045 63.7183 30.0452C63.7481 28.2582 63.8707 26.4732 63.9583 24.6871C64.0042 23.7478 64.0609 22.8085 64.1157 21.8084H62.1932C62.2341 20.9119 62.2719 20.0762 62.3128 19.1847H64.3289C64.3757 18.4844 64.4524 17.833 64.4514 17.1825C64.4514 16.6845 64.6018 16.4723 65.1307 16.3996C65.9635 16.286 66.7803 16.0549 67.6051 15.8786C67.7286 15.8517 67.8581 15.8537 67.9866 15.8428V19.1429H71.2787V21.7955C70.2646 21.7955 69.3233 21.8174 68.383 21.7855C67.9437 21.7706 67.7853 21.8851 67.7734 22.3503C67.7266 24.1712 67.6319 25.99 67.5622 27.8099C67.5493 28.1406 67.5543 28.4743 67.5881 28.803C67.6798 29.7025 68.1888 30.2045 69.0902 30.1846C69.7616 30.1697 70.431 30.0362 71.1571 29.9486L71.1552 29.9495Z" fill="#6B7280"/>
<path d="M29.6347 19.2726C29.7034 20.2109 29.7721 21.1493 29.8458 22.1593C29.3328 22.0248 28.8657 21.8933 28.3945 21.7808C27.4552 21.5557 26.5049 21.3983 25.5417 21.5756C23.5575 21.9402 22.3283 23.2958 22.1948 25.3169C22.149 26.0042 22.1639 26.7135 22.2814 27.3898C22.5693 29.0374 23.7109 30.0155 25.3773 30.1829C26.5886 30.3044 27.751 30.0833 28.9005 29.7426C29.042 29.7008 29.1824 29.6569 29.4085 29.5882C29.2482 30.5654 29.1037 31.4908 28.9344 32.4112C28.9185 32.4998 28.7611 32.6084 28.6545 32.6293C26.7908 33.0058 24.9151 33.1901 23.0295 32.8196C20.5751 32.3365 18.9365 30.6331 18.4415 28.0064C18.0948 26.1636 18.2403 24.3427 18.9585 22.5976C19.837 20.4629 21.4378 19.2049 23.7218 18.8642C25.6453 18.5773 27.5548 18.7198 29.4404 19.1879C29.5022 19.2029 29.559 19.2387 29.6347 19.2726Z" fill="#6B7280"/>
<path d="M82.6094 21.8643C81.7796 21.689 81.0136 21.4459 80.2327 21.3862C79.5195 21.3314 78.7694 21.3862 78.0751 21.5555C77.09 21.7946 76.8071 22.7917 77.5173 23.5218C78.113 24.1344 78.8352 24.6235 79.4956 25.1743C80.1052 25.6834 80.7586 26.1535 81.3005 26.7273C83.1901 28.7274 82.6014 31.391 80.0713 32.4598C78.5204 33.1153 76.9047 33.0894 75.2801 32.9021C74.525 32.8154 73.776 32.673 73.0309 32.5226C72.8745 32.4907 72.6414 32.3263 72.6245 32.1988C72.5069 31.3163 72.4362 30.4268 72.3525 29.5552C73.3347 29.8202 74.273 30.1499 75.2392 30.3082C75.9256 30.4208 76.6557 30.3501 77.357 30.2734C77.9317 30.2106 78.3799 29.872 78.5353 29.2773C78.6967 28.6617 78.4397 28.1646 77.9765 27.7841C77.082 27.047 76.1507 26.3527 75.2681 25.6007C74.793 25.1953 74.3228 24.754 73.9632 24.249C72.6703 22.4331 73.3706 20.0922 75.4305 19.2256C76.836 18.6339 78.3132 18.6838 79.7874 18.7814C80.5295 18.8302 81.2647 18.9686 82.0048 19.0503C82.3195 19.0852 82.464 19.2187 82.4769 19.5464C82.5068 20.3213 82.5646 21.0963 82.6104 21.8653L82.6094 21.8643Z" fill="#6B7280"/>
<path d="M119.423 14.3955H123.238C122.959 20.4777 122.681 26.538 122.402 32.6401H118.583C118.862 26.5559 119.142 20.4946 119.423 14.3955Z" fill="#6B7280"/>
<path d="M35.9082 32.648H32.2515C32.4925 26.5708 32.7346 20.4976 32.9766 14.3975H36.6682C36.4152 20.4727 36.1622 26.5439 35.9082 32.648Z" fill="#6B7280"/>
<path d="M45.7416 32.6591C45.1041 32.6591 44.5493 32.6571 43.9955 32.6591C43.2992 32.6631 42.6029 32.685 41.9077 32.668C41.7373 32.6641 41.4973 32.5893 41.4116 32.4638C39.7561 30.0294 38.1195 27.582 36.4789 25.1375C36.4699 25.1246 36.466 25.1076 36.4341 25.0339C36.957 24.3974 37.5059 23.743 38.0398 23.0766C39.0339 21.8364 40.0161 20.5873 41.0122 19.3502C41.1158 19.2217 41.2801 19.0563 41.4186 19.0533C42.7553 19.0314 44.0921 19.0404 45.5265 19.0404C45.3731 19.2346 45.2824 19.3601 45.1808 19.4777C43.6588 21.2268 42.1427 22.98 40.6057 24.7162C40.3567 24.9981 40.3627 25.1863 40.5739 25.4762C42.1806 27.6836 43.7724 29.9019 45.3681 32.1172C45.4797 32.2726 45.5843 32.432 45.7406 32.6601L45.7416 32.6591Z" fill="#6B7280"/>
<path d="M15.3178 32.6591H11.4031C11.6133 28.1308 11.8224 23.6165 12.0326 19.0713H15.8168C15.6514 23.5876 15.4861 28.092 15.3178 32.6591Z" fill="#6B7280"/>
<path d="M164.796 32.6493H162.842C162.898 31.5745 162.955 30.5077 163.007 29.4399C163.027 29.0265 163.058 28.6121 163.048 28.1997C163.037 27.7276 162.881 27.3142 162.4 27.121C161.943 26.9377 161.279 27.0702 161.028 27.5383C160.749 28.0593 160.553 28.6619 160.482 29.2486C160.365 30.2158 160.378 31.198 160.334 32.1732C160.327 32.3196 160.312 32.466 160.298 32.6453H158.358C158.459 30.3284 158.56 28.0364 158.661 25.7214H160.479V26.7325C161.071 25.8519 161.863 25.5252 162.774 25.5232C163.68 25.5212 164.48 25.7852 164.887 26.7335C165.785 25.5093 166.968 25.3011 168.31 25.7005C169.116 25.9406 169.548 26.5293 169.519 27.37C169.459 29.1201 169.365 30.8683 169.282 32.6483H167.329C167.378 31.6861 167.43 30.7338 167.477 29.7815C167.502 29.2686 167.524 28.7566 167.542 28.2436C167.559 27.7425 167.419 27.3172 166.907 27.121C166.404 26.9287 165.821 27.1 165.468 27.5294C165.055 28.0304 164.976 28.639 164.945 29.2536C164.888 30.3742 164.846 31.4958 164.796 32.6473V32.6493Z" fill="#6B7280"/>
<path d="M70.433 38.3467H72.229C72.1822 39.0718 72.1373 39.7721 72.0915 40.4734C72.6932 40.4206 73.249 40.3319 73.8048 40.3289C75.9345 40.317 77.1587 41.6936 76.9097 43.8153C76.8618 44.2217 76.7602 44.6281 76.6327 45.0186C75.8817 47.3315 72.9193 47.5696 71.8335 45.9898C71.8106 46.0077 71.7708 46.0236 71.7688 46.0435C71.7263 46.5721 71.4421 46.8361 70.9161 46.8354C70.6372 46.8354 70.3593 46.8354 70.0455 46.8354C70.175 44.0035 70.3025 41.2045 70.433 38.3467ZM71.96 41.7703C71.96 42.7036 71.9202 43.5324 71.972 44.3542C72.0188 45.0833 72.491 45.5345 73.1912 45.664C73.8377 45.7836 74.5459 45.4817 74.777 44.8303C74.9742 44.2735 75.0798 43.6429 75.0479 43.0543C74.9981 42.1388 74.3367 41.598 73.4114 41.6089C72.9382 41.6139 72.4661 41.7105 71.959 41.7703H71.96Z" fill="#6B7280"/>
<path d="M120.807 46.8196H119.177V45.8713C118.544 46.5985 117.855 46.984 116.966 46.978C115.355 46.967 114.251 45.9171 114.183 44.2975C114.07 41.6329 115.998 39.9824 118.783 40.3559C118.946 40.3778 119.108 40.4007 119.363 40.4346V38.3418H121.196C121.067 41.1618 120.937 43.9638 120.807 46.8196ZM119.341 41.6548C117.458 41.2733 116.316 41.8939 116.005 43.407C115.857 44.1232 115.895 44.8483 116.528 45.3593C117.428 46.0855 118.719 45.6004 119.019 44.3572C119.228 43.4876 119.24 42.5712 119.342 41.6548H119.341Z" fill="#6B7280"/>
<path d="M149.399 29.2403C149.441 26.9523 151.063 25.4651 153.463 25.5159C155.733 25.5637 157.188 26.9583 157.162 29.06C157.131 31.4596 155.536 32.899 152.965 32.8492C150.783 32.8064 149.36 31.368 149.4 29.2403H149.399ZM151.397 29.332C151.397 29.4316 151.393 29.5302 151.397 29.6298C151.44 30.6379 152.031 31.3311 152.949 31.4557C153.887 31.5832 154.703 31.0592 154.985 30.103C155.091 29.7434 155.156 29.3569 155.153 28.9833C155.142 27.3697 153.853 26.4941 152.488 27.1635C151.585 27.6047 151.429 28.4444 151.396 29.333L151.397 29.332Z" fill="#6B7280"/>
<path d="M65.2204 46.8186H63.6137V45.9061C63.5221 45.9599 63.4593 45.9759 63.4284 46.0157C62.6355 47.0596 61.1922 47.1792 60.1811 46.7538C59.1273 46.3106 58.5565 45.3025 58.5934 43.9677C58.6621 41.4675 60.5148 40.0033 63.1704 40.3509C63.3477 40.3738 63.5241 40.3957 63.781 40.4286V38.3438H65.5959C65.4714 41.1547 65.3469 43.9568 65.2194 46.8166L65.2204 46.8186ZM63.7422 41.6548C61.7271 41.2384 60.5417 42.0104 60.3505 43.7725C60.2568 44.6311 60.6772 45.3673 61.3924 45.5983C62.3307 45.9022 63.2392 45.3513 63.4663 44.2307C63.6356 43.396 63.6535 42.5314 63.7422 41.6548Z" fill="#6B7280"/>
<path d="M33.0354 46.8155H31.2056C31.3331 43.9806 31.4586 41.1756 31.5861 38.3467H33.3721C33.3153 39.3298 33.2595 40.309 33.1948 41.4246C34.164 40.2731 35.3274 40.1755 36.5676 40.4176C37.5946 40.6178 38.1334 41.2573 38.1036 42.2992C38.0607 43.7874 37.9651 45.2746 37.8894 46.8036H36.0626C36.1243 45.8214 36.1851 44.8512 36.2458 43.881C36.2578 43.6828 36.2677 43.4846 36.2777 43.2853C36.3255 42.3221 36.0695 41.9057 35.3284 41.7374C34.5286 41.5561 33.646 41.9336 33.4229 42.6967C33.2037 43.4487 33.1241 44.2476 33.0474 45.0325C32.9906 45.6172 33.0364 46.2119 33.0364 46.8135L33.0354 46.8155Z" fill="#6B7280"/>
<path d="M138.284 46.8186H136.492C136.608 44.7158 136.723 42.641 136.839 40.5262H138.556V41.4337C139.271 40.5392 140.163 40.2762 141.153 40.335C141.575 40.3599 142.006 40.4605 142.402 40.6079C143.133 40.8808 143.419 41.5104 143.405 42.2286C143.374 43.7466 143.281 45.2637 143.211 46.8126H141.483C141.483 46.3425 141.471 45.8852 141.486 45.428C141.51 44.7009 141.564 43.9737 141.582 43.2456C141.601 42.4328 141.379 42.0542 140.808 41.852C140.134 41.614 139.309 41.8092 138.95 42.4158C138.699 42.8402 138.544 43.3562 138.478 43.8482C138.373 44.6162 138.381 45.3992 138.338 46.1751C138.326 46.3853 138.303 46.5955 138.283 46.8166L138.284 46.8186Z" fill="#6B7280"/>
<path d="M97.7451 41.3838C98.6475 40.3628 99.7263 40.1885 100.914 40.4057C102.071 40.6168 102.593 41.2245 102.566 42.3869C102.534 43.7605 102.47 45.1322 102.401 46.5048C102.395 46.6213 102.249 46.8225 102.16 46.8285C101.652 46.8604 101.141 46.8435 100.581 46.8435C100.614 46.2099 100.646 45.6222 100.673 45.0345C100.701 44.4229 100.727 43.8113 100.75 43.1997C100.771 42.6359 100.659 42.1259 100.065 41.8978C99.4514 41.6617 98.8567 41.7195 98.3397 42.1548C97.8496 42.5672 97.6913 43.14 97.6444 43.7476C97.5677 44.7526 97.508 45.7587 97.4383 46.8056H95.6572C95.7738 44.7098 95.8883 42.6349 96.0059 40.5232H97.7451V41.3848V41.3838Z" fill="#6B7280"/>
<path d="M42.7025 46.9692C41.3677 46.9463 40.1884 46.5817 39.5797 45.2778C38.9801 43.9948 39.0936 42.7168 39.9563 41.5803C41.1815 39.9656 44.3242 39.874 45.5792 41.4199C46.4827 42.5336 46.4827 43.8016 45.9558 45.0716C45.4368 46.3217 44.3959 46.8527 43.1009 46.9682C42.9695 46.9802 42.836 46.9702 42.7035 46.9702L42.7025 46.9692ZM41.054 43.7857C41.056 43.8205 41.0579 43.9361 41.0679 44.0516C41.1516 45.0577 41.6725 45.6464 42.5202 45.6952C43.5273 45.753 44.2046 45.2549 44.3799 44.2439C44.4566 43.7986 44.4636 43.3195 44.3879 42.8752C44.2395 42.0056 43.5173 41.5315 42.6447 41.65C41.6287 41.7875 41.1127 42.4559 41.055 43.7857H41.054Z" fill="#6B7280"/>
<path d="M53.7911 46.8179H52.1436V45.8975C51.2132 47.035 50.0647 47.1267 48.8475 46.8677C47.9271 46.6715 47.4041 46.0967 47.4151 45.1574C47.433 43.6224 47.5525 42.0874 47.6312 40.5205H49.4163C49.3505 41.5137 49.2848 42.4968 49.219 43.48C49.2061 43.6782 49.1822 43.8764 49.1772 44.0746C49.1563 44.8855 49.4093 45.3118 50.0049 45.4821C50.7719 45.7013 51.5927 45.4393 51.8687 44.748C52.0958 44.1792 52.1924 43.5387 52.2402 42.9221C52.301 42.1352 52.2551 41.3403 52.2551 40.5186H54.1149C54.0083 42.6014 53.9007 44.6892 53.7911 46.8179Z" fill="#6B7280"/>
<path d="M149.777 40.5054H151.555C151.492 41.4756 151.429 42.4249 151.366 43.3751C151.351 43.6062 151.323 43.8373 151.317 44.0694C151.296 44.9091 151.557 45.3285 152.188 45.4909C152.952 45.6871 153.685 45.4132 154.018 44.7567C154.163 44.4689 154.269 44.1372 154.297 43.8174C154.392 42.7317 154.445 41.6419 154.517 40.5213H156.255C156.147 42.6231 156.041 44.699 155.932 46.8107H154.289V45.8455C153.824 46.485 153.316 46.8346 152.67 46.9013C152.212 46.9481 151.738 46.9989 151.286 46.9362C150.149 46.7798 149.523 46.1294 149.547 45.0675C149.581 43.5644 149.696 42.0633 149.778 40.5064L149.777 40.5054Z" fill="#6B7280"/>
<path d="M92.3422 46.8428C92.4019 45.7581 92.4597 44.7241 92.5195 43.6543C91.8142 43.8824 91.1578 44.0826 90.5123 44.3117C90.3151 44.3815 90.1229 44.507 89.9715 44.6524C89.5471 45.0578 89.6776 45.7471 90.2464 45.8706C90.7126 45.9722 91.2186 45.8916 91.7107 45.8916C91.7714 46.6974 91.5582 46.9634 90.7434 46.9654C90.2663 46.9654 89.7812 46.9474 89.313 46.8628C88.6237 46.7373 88.2402 46.2701 88.0699 45.5987C87.9065 44.9532 88.0868 44.4193 88.553 43.9761C89.1955 43.3645 90.0422 43.22 90.856 43.0059C91.2236 42.9092 91.5951 42.8256 91.9547 42.706C92.2944 42.5935 92.5344 42.3694 92.4916 41.9719C92.4478 41.5635 92.137 41.3832 91.7943 41.4051C91.0413 41.4519 90.2922 41.5625 89.5441 41.6651C89.3369 41.694 89.1387 41.7856 88.8907 41.8633C88.9345 41.5177 88.9505 41.2039 89.0232 40.9051C89.0501 40.7955 89.2005 40.659 89.315 40.6351C90.4685 40.3961 91.626 40.1949 92.8113 40.418C93.9549 40.6341 94.3922 41.188 94.3304 42.3534C94.2607 43.6922 94.1889 45.0319 94.1441 46.3717C94.1322 46.7243 94.0545 46.8847 93.664 46.8518C93.2407 46.8159 92.8113 46.8438 92.3422 46.8438V46.8428Z" fill="#6B7280"/>
<path d="M107.585 41.8663C107.637 41.4808 107.66 41.1681 107.732 40.8663C107.755 40.7706 107.896 40.6561 108.001 40.6352C109.155 40.4021 110.312 40.1949 111.498 40.416C112.654 40.6312 113.081 41.1741 113.015 42.3445C112.941 43.6673 112.886 44.9921 112.822 46.3149C112.814 46.4763 112.802 46.6377 112.79 46.8209H111.037C111.1 45.7601 111.161 44.7271 111.224 43.6414C110.477 43.8944 109.774 44.1016 109.096 44.3715C108.558 44.5857 108.333 44.9672 108.44 45.3517C108.583 45.8597 108.995 45.9832 109.45 45.9772C109.776 45.9723 110.102 45.9005 110.425 45.8587C110.406 46.816 110.269 46.9684 109.334 46.9684C108.922 46.9684 108.506 46.9435 108.099 46.8827C107.333 46.7672 106.909 46.2691 106.751 45.5429C106.597 44.8407 106.811 44.1972 107.419 43.8575C108.086 43.486 108.843 43.2698 109.569 43.0099C109.941 42.8764 110.368 42.8595 110.702 42.6702C110.928 42.5417 111.145 42.216 111.171 41.958C111.209 41.5944 110.858 41.3922 110.532 41.4101C109.778 41.452 109.027 41.5536 108.278 41.6512C108.069 41.6781 107.869 41.7767 107.585 41.8673V41.8663Z" fill="#6B7280"/>
<path d="M168.658 43.632C167.318 43.632 165.993 43.632 164.668 43.632C164.049 43.632 164.014 43.6748 164.111 44.2824C164.259 45.2028 164.89 45.7606 165.859 45.7855C166.237 45.7955 166.619 45.7527 166.994 45.6959C167.365 45.6391 167.73 45.5335 168.158 45.4359C168.102 45.8284 168.066 46.186 167.988 46.5336C167.967 46.6292 167.833 46.7478 167.732 46.7697C166.603 47.0207 165.466 47.1004 164.337 46.7946C163.007 46.435 162.21 45.1998 162.299 43.6977C162.458 41.0302 164.688 39.6037 167.201 40.563C168.34 40.9983 168.913 42.1548 168.659 43.63L168.658 43.632ZM167.014 42.873C167.083 41.9894 166.677 41.4645 165.901 41.4037C164.982 41.332 164.304 41.9127 164.197 42.873H167.014Z" fill="#6B7280"/>
<path d="M83.6562 45.434C83.6512 45.5376 83.6522 45.5844 83.6453 45.6312C83.466 46.7718 83.47 46.8266 82.3364 46.9212C81.5535 46.9869 80.7416 46.958 79.9677 46.8256C78.8152 46.6283 77.9904 45.691 77.8689 44.4807C77.8091 43.8841 77.836 43.2456 77.9834 42.6668C78.4317 40.9067 80.0065 40.0411 81.9818 40.3917C83.6542 40.6886 84.4661 41.854 84.1613 43.6052H79.7057C79.366 44.7447 80.1151 45.7308 81.3164 45.7826C81.7089 45.7996 82.1093 45.7538 82.4998 45.695C82.8733 45.6392 83.2389 45.5306 83.6572 45.433L83.6562 45.434ZM82.4928 42.875C82.5914 41.9656 82.1561 41.4287 81.3204 41.4018C80.4109 41.3729 79.7077 42.0253 79.7386 42.875H82.4928Z" fill="#6B7280"/>
<path d="M130.935 43.6321C130.819 44.957 131.524 45.7997 132.75 45.7797C133.483 45.7678 134.214 45.6054 134.979 45.5068C134.928 45.8096 134.888 46.1682 134.8 46.5139C134.773 46.6204 134.633 46.7499 134.523 46.7748C133.43 47.0308 132.324 47.0876 131.229 46.8217C129.768 46.4661 128.91 45.0227 129.14 43.3851C129.496 40.858 131.752 39.5999 134.119 40.609C135.112 41.0323 135.797 42.3203 135.54 43.3473C135.51 43.4658 135.268 43.6062 135.122 43.6092C133.913 43.6341 132.704 43.6282 131.495 43.6321C131.316 43.6321 131.135 43.6321 130.935 43.6321ZM131.014 42.8721H133.861C133.874 41.9567 133.478 41.4597 132.716 41.4039C131.819 41.3371 131.157 41.892 131.014 42.8721Z" fill="#6B7280"/>
<path d="M20.8033 45.5197C20.7575 45.8275 20.7256 46.1711 20.6449 46.5038C20.6181 46.6124 20.4766 46.7469 20.365 46.7728C19.2554 47.0258 18.1328 47.0955 17.0221 46.8077C15.6545 46.453 14.8387 45.177 14.9512 43.6401C15.1455 40.9944 17.4236 39.5919 19.8999 40.584C20.9836 41.0183 21.5335 42.1758 21.3592 43.395C21.3462 43.4877 21.0972 43.6082 20.9567 43.6112C19.7146 43.6321 18.4705 43.65 17.2293 43.6211C16.7382 43.6102 16.6785 43.8203 16.7402 44.2178C16.8897 45.1701 17.5152 45.7886 18.4904 45.7757C19.2424 45.7657 19.9925 45.6153 20.8023 45.5197H20.8033ZM16.8329 42.8701H19.6797C19.7206 41.9925 19.3341 41.4825 18.593 41.4048C17.6875 41.3102 17.0241 41.8501 16.8329 42.8701Z" fill="#6B7280"/>
<path d="M148.418 27.2623C147.871 27.1627 147.374 27.0162 146.87 26.9893C145.318 26.9087 144.41 27.832 144.467 29.381C144.525 30.9728 145.569 31.6939 147.296 31.3323C147.57 31.2746 147.839 31.1979 148.185 31.1112C148.112 31.5854 148.062 32.0197 147.966 32.443C147.943 32.5426 147.761 32.6721 147.65 32.6751C146.682 32.705 145.689 32.8454 144.748 32.689C143.327 32.452 142.477 31.1421 142.481 29.4368C142.482 28.9148 142.567 28.3769 142.713 27.8759C143.154 26.3648 144.191 25.6028 145.947 25.537C146.635 25.5111 147.329 25.6416 148.017 25.7263C148.126 25.7402 148.291 25.8797 148.306 25.9793C148.369 26.4007 148.385 26.828 148.419 27.2633L148.418 27.2623Z" fill="#6B7280"/>
<path d="M0.959026 38.3438H2.89246C2.77392 40.7214 2.65638 43.0742 2.53685 45.4768H6.56508C6.52723 45.948 6.49336 46.3693 6.4565 46.8176H0.533691C0.675138 43.9926 0.816584 41.1906 0.959026 38.3438Z" fill="#6B7280"/>
<path d="M121.885 40.4886C122.47 40.4886 122.998 40.4667 123.522 40.5055C123.634 40.5135 123.778 40.7266 123.824 40.8711C124.271 42.2696 124.7 43.6741 125.164 45.1732C125.499 44.3355 125.804 43.5834 126.104 42.8294C126.367 42.169 126.641 41.5136 126.876 40.8432C126.978 40.5533 127.132 40.4666 127.423 40.4816C127.868 40.5035 128.314 40.4876 128.846 40.4876C128.77 40.6868 128.722 40.8312 128.66 40.9707C127.839 42.8125 127.011 44.6503 126.203 46.496C126.084 46.768 125.939 46.8885 125.645 46.8487C125.481 46.8268 125.314 46.8387 125.148 46.8377C124.101 46.8327 124.106 46.8317 123.768 45.8695C123.21 44.2807 122.646 42.6929 122.086 41.1051C122.021 40.9219 121.964 40.7356 121.884 40.4886H121.885Z" fill="#6B7280"/>
<path d="M14.484 40.5086C14.5484 41.34 14.2011 41.7604 13.4421 41.7697C13.2967 41.7717 13.1502 41.7856 12.963 41.7966C12.9171 42.8265 12.8683 43.8306 12.8295 44.8347C12.8096 45.3636 12.7986 45.8935 12.8036 46.4234C12.8066 46.7322 12.71 46.8727 12.3713 46.8528C11.9131 46.8249 11.4519 46.8458 10.9688 46.8458C11.0504 45.1415 11.1281 43.4949 11.2088 41.8085C10.9588 41.7836 10.7357 41.7617 10.4388 41.7328C10.4598 41.3374 10.4807 40.9519 10.5036 40.5315H11.3114C11.3433 40.1251 11.3513 39.7486 11.4051 39.38C11.5246 38.5672 12.0007 38.0921 12.8145 38.0462C13.3554 38.0154 13.9013 38.0931 14.4452 38.109C14.8018 38.119 14.9492 38.2793 14.9133 38.6379C14.8904 38.866 14.9093 39.0981 14.9093 39.3621C14.3196 39.3103 13.6762 38.9457 13.1851 39.4617C12.9719 39.6858 12.9689 40.1082 12.8504 40.5096H14.483L14.484 40.5086Z" fill="#6B7280"/>
<path d="M147.14 40.5225H148.618C148.665 40.5922 148.696 40.6181 148.698 40.645C148.746 41.3968 148.395 41.7736 147.645 41.7756C147.481 41.7756 147.317 41.7756 147.053 41.7756C147.03 42.8962 146.975 43.98 147.001 45.0617C147.012 45.5219 147.366 45.7222 147.852 45.6714C148.093 45.6464 148.331 45.5897 148.633 45.5369C148.556 45.9393 148.501 46.2929 148.415 46.6386C148.393 46.7242 148.271 46.8398 148.189 46.8448C147.564 46.8866 146.93 46.9812 146.315 46.9125C145.525 46.8238 145.138 46.3148 145.154 45.498C145.171 44.5557 145.246 43.6134 145.297 42.6711C145.312 42.3942 145.329 42.1173 145.348 41.8045C145.033 41.7836 144.762 41.7646 144.445 41.7437C144.466 41.3353 144.484 40.9618 144.505 40.5464H145.335C145.393 40.4777 145.427 40.4558 145.431 40.4289C145.609 39.1479 145.656 39.108 147.142 39.0264V40.5215L147.14 40.5225Z" fill="#6B7280"/>
<path d="M25.2509 45.3873C25.7738 45.5158 26.2191 45.6324 26.6683 45.732C26.8277 45.7679 27 45.7868 27.1614 45.7679C27.5379 45.723 27.9533 45.7051 28.0898 45.2499C28.2212 44.8116 27.8975 44.5915 27.6116 44.3594C27.1624 43.9938 26.6982 43.6432 26.2729 43.2507C25.7957 42.8104 25.5477 42.2666 25.738 41.5992C25.9382 40.8959 26.4502 40.4895 27.1355 40.4357C28.0489 40.364 28.9713 40.4178 29.9116 40.4178C29.9495 40.9467 29.9794 41.3511 30.0063 41.7257C29.3897 41.6789 28.804 41.5872 28.2232 41.6111C27.9762 41.6211 27.6007 41.8293 27.5369 42.0275C27.4742 42.2227 27.6784 42.5744 27.8626 42.7626C28.1844 43.0903 28.5838 43.3424 28.9464 43.6312C29.6188 44.1651 30.1318 44.7947 29.8319 45.7131C29.5371 46.6155 28.7382 46.8895 27.9065 46.9452C27.2212 46.9911 26.5239 46.8576 25.8316 46.8237C25.4561 46.8058 25.3156 46.6096 25.3047 46.2639C25.2957 45.986 25.2708 45.7081 25.2499 45.3873H25.2509Z" fill="#6B7280"/>
<path d="M57.1878 46.8207H55.4028C55.5333 43.9968 55.6628 41.1987 55.7943 38.3608H57.5843C57.4528 41.1758 57.3213 43.9759 57.1878 46.8207Z" fill="#6B7280"/>
<path d="M157.769 40.5156H159.436C159.446 40.7337 159.455 40.926 159.468 41.2049C159.959 40.6291 160.509 40.3204 161.217 40.3184C161.586 40.3184 161.775 40.4279 161.741 40.8343C161.713 41.1611 161.735 41.4918 161.735 41.8394C161.543 41.8235 161.368 41.8025 161.192 41.7966C160.274 41.7687 159.592 42.2588 159.481 43.1692C159.356 44.2012 159.349 45.2471 159.293 46.287C159.284 46.4494 159.292 46.6137 159.292 46.8109H157.527C157.608 44.7191 157.687 42.6433 157.77 40.5146L157.769 40.5156Z" fill="#6B7280"/>
<path d="M9.18583 46.8249H7.354C7.44764 44.7162 7.53928 42.6303 7.63291 40.5156H9.40597C9.33326 42.6035 9.26054 44.6893 9.18583 46.8249Z" fill="#6B7280"/>
<path d="M15.9523 16.7234H12.0874V14.1953H15.9523V16.7234Z" fill="#6B7280"/>
<path d="M139.117 30.8594H141.043V32.6374H139.117V30.8594Z" fill="#6B7280"/>
<path d="M7.67566 39.378V38.2563H9.52542C9.50151 38.6349 9.4796 38.9905 9.45569 39.378H7.67666H7.67566Z" fill="#6B7280"/>
</g>
<defs>
<clipPath id="clip0_330_1134">
<rect width="169.04" height="47" fill="white" transform="translate(0.479858)"/>
</clipPath>
</defs>
</svg>
