<svg width="40" height="40" viewBox="0 0 40 40" fill="none" xmlns="http://www.w3.org/2000/svg">
<path d="M33.62 6.29018C30.01 2.67018 25.2 0.680176 20.07 0.680176C9.52001 0.680176 0.93001 9.26017 0.92001 19.8202C0.92001 23.1902 1.80001 26.4902 3.48001 29.3902L0.76001 39.3102L10.91 36.6502C13.71 38.1802 16.86 38.9802 20.07 38.9802C30.63 38.9802 39.22 30.3902 39.23 19.8402C39.23 14.7202 37.24 9.91018 33.62 6.29018ZM31.32 31.0802C28.44 33.9702 24.46 35.7502 20.07 35.7502C17.21 35.7502 14.41 34.9802 11.96 33.5302L11.38 33.1902L5.36001 34.7702L6.97001 28.8902L6.59001 28.2902C4.99001 25.7602 4.15001 22.8302 4.15001 19.8202C4.15001 11.0502 11.3 3.91018 20.08 3.91018C24.33 3.91018 28.33 5.57018 31.33 8.58018C34.34 11.5802 35.99 15.5802 35.99 19.8302C35.99 24.0802 34.21 28.2002 31.32 31.0802Z" fill="#6B7280"/>
<path d="M29.45 26.66C29.05 27.78 27.14 28.8 26.22 28.94C25.4 29.06 24.36 29.11 23.21 28.75C22.51 28.53 21.62 28.23 20.48 27.74C15.68 25.67 12.54 20.84 12.31 20.52C12.07 20.2 10.35 17.92 10.35 15.57C10.35 13.22 11.59 12.06 12.03 11.58C12.47 11.1 12.98 10.98 13.3 10.98C13.62 10.98 13.94 10.98 14.22 11C14.51 11 14.91 10.88 15.3 11.82C15.7 12.78 16.65 15.13 16.77 15.37C16.89 15.61 16.97 15.89 16.81 16.21C16.65 16.53 16.12 17.22 15.62 17.84C15.4 18.11 15.13 18.34 15.41 18.82C15.68 19.3 16.65 20.87 18.07 22.13C19.9 23.76 21.44 24.27 21.92 24.51C22.39 24.75 22.67 24.71 22.95 24.39C23.23 24.07 24.15 22.99 24.47 22.51C24.79 22.03 25.11 22.11 25.54 22.27C25.98 22.43 28.34 23.59 28.82 23.83C29.29 24.07 29.61 24.19 29.73 24.39C29.85 24.59 29.85 25.55 29.45 26.66Z" fill="#6B7280"/>
</svg>
