<svg width="32" height="24" viewBox="0 0 32 24" fill="none" xmlns="http://www.w3.org/2000/svg">
<path d="M31.26 4.30012C30.62 2.33012 28.5001 1.14012 26.5601 0.870117C19.5501 0.120117 12.4801 0.120117 5.47007 0.870117C3.50007 1.14012 1.38006 2.32012 0.740059 4.30012C-0.249941 9.39012 -0.249941 14.6201 0.740059 19.7001C1.38006 21.6701 3.50005 22.8601 5.45005 23.1401C12.4601 23.8801 19.53 23.8801 26.54 23.1401C28.49 22.8601 30.61 21.6701 31.25 19.7001C32.25 14.6201 32.26 9.39012 31.25 4.30012H31.26ZM12.1701 18.1401V5.87012L22.1501 12.0001L12.1701 18.1401Z" fill="#6B7280"/>
</svg>
